<svg width="360" height="360" viewBox="0 0 360 360" fill="none" xmlns="http://www.w3.org/2000/svg">
<path d="M267.002 193.621C279.602 166.945 254.024 165.721 241.226 175.729L247.544 166.729C240.524 160.231 241.226 166.189 236.744 172.129C233.144 177.529 216.746 190.021 216.746 190.021C214.142 189.537 211.49 189.362 208.844 189.499C205.694 189.841 209.366 192.289 209.204 194.053C204.29 198.967 209.906 197.653 208.682 201.595C207.278 203.179 202.706 201.937 206.396 209.317C196.748 206.671 200.438 186.151 210.248 186.853C205.32 177.038 204.044 165.789 206.648 155.119C205.171 155.552 203.62 155.668 202.094 155.461C200.294 158.611 198.764 170.545 202.976 184.261C189.296 168.295 175.778 167.431 171.926 170.761C167.372 174.793 174.032 190.057 172.106 199.345C168.506 208.651 160.514 212.503 163.682 223.735L199.808 210.811L207.53 230.449C199.646 233.599 191.042 237.469 191.042 237.469C190.862 239.053 188.594 253.075 189.116 253.669L212.786 245.083C216.494 255.145 217.502 255.721 227.528 282.433C228.932 263.155 238.58 260.167 227.708 239.467C229.639 238.808 231.512 237.989 233.306 237.019C233.144 236.317 225.242 229.819 221.732 227.191C222.156 227.041 222.571 226.867 222.974 226.669C235.772 238.405 250.496 235.669 253.304 230.701C257.174 223.861 252.08 214.375 253.844 208.417C255.968 200.983 264.734 196.771 267.002 193.621Z" fill="#FFC619"/>
<path d="M186.489 239.055C186.039 239.217 176.967 242.655 174.573 243.429C172.647 244.599 172.197 255.579 170.973 260.799C170.973 260.799 180.279 257.289 183.573 256.065C184.221 255.201 185.931 239.415 186.489 239.055Z" fill="#FFC619"/>
<path d="M164.583 247.296L138.789 256.062L143.523 269.922C149.812 268.064 155.985 265.834 162.009 263.244C160.371 258.69 164.583 247.296 164.583 247.296Z" fill="#FFC619"/>
<path d="M305.25 194.666C303.846 195.548 306.132 208.706 306.132 210.272C326.292 202.028 325.41 209.57 318.048 190.814L305.25 194.666Z" fill="#FFC619"/>
<path d="M237.605 266.414C237.162 269.086 236.338 271.68 235.157 274.118C232.409 279.432 230.965 285.325 230.945 291.308L235.157 299.03C235.859 299.732 241.295 282.02 242.699 279.554C242.627 279.554 237.605 266.234 237.605 266.414Z" fill="#FFC619"/>
<path d="M298.932 197.474L261.744 209.57C261.924 210.974 261.924 226.598 261.924 226.598L299.814 212.378C299.004 205.916 299.922 206.33 298.932 197.474Z" fill="#FFC619"/>
<path d="M259.818 320.434C259.818 320.434 245.418 284.65 245.418 284.308C245.238 284.308 243.834 291.67 240.864 296.908C239.322 299.758 238.252 302.84 237.696 306.034L245.418 326.554L259.818 320.434Z" fill="#FFC619"/>
<path d="M146.687 192.218C149.315 191.984 151.943 184.676 154.049 176.774C155.453 169.574 147.011 157.334 145.985 155.912C144.365 153.662 140.765 156.038 142.475 158.36C152.447 171.986 150.719 178.16 144.743 189.05C144.563 189.381 144.472 189.754 144.482 190.131C144.491 190.508 144.6 190.875 144.797 191.197C144.995 191.518 145.273 191.782 145.605 191.961C145.937 192.141 146.31 192.229 146.687 192.218Z" fill="#001434"/>
<path d="M114.415 95.9215C135.457 78.9115 117.007 57.3295 92.3108 63.8995C83.7068 66.3475 76.8668 81.8995 83.0048 89.6755C89.1428 97.4515 106.207 102.402 114.415 95.9215ZM94.2368 92.2315C76.2368 86.2735 87.7388 63.6475 103.003 67.3195C99.1508 73.9975 96.1628 84.3475 94.2368 92.2315Z" fill="#001434"/>
<path d="M104.929 191.86C103.363 192.562 101.059 189.79 99.8527 188.71C90.5287 180.322 87.5767 179.584 95.6407 168.91C95.9725 168.459 96.12 167.899 96.0531 167.344C95.9862 166.789 95.7099 166.28 95.2807 165.922C91.7887 163.114 85.2907 176.722 86.6947 180.124C87.7387 183.814 94.5787 189.772 99.4927 194.344C85.6507 205.396 65.9947 230.812 58.2727 242.224C39.3367 226.024 20.5627 210.652 15.8287 194.506C6.18073 164.698 28.9867 134.872 46.4287 122.254C52.7774 126.618 59.9299 129.677 67.4707 131.254C74.3688 136.237 82.0878 139.972 90.2767 142.288C96.5947 150.37 109.753 161.062 114.829 162.088C118.861 162.79 123.253 159.982 136.051 145.6C155.527 142.612 169.387 133.486 175.345 122.974C178.88 120.416 182.116 117.47 184.993 114.19C198.853 125.602 190.609 130.516 214.459 123.658C214.819 126.826 218.311 165.058 226.555 165.76C227.797 165.94 227.617 163.654 227.257 162.43C221.479 148.228 219.373 129.112 218.491 118.762C219.895 108.754 232.711 107.35 239.191 116.476C239.756 117.27 240.534 117.889 241.435 118.262C242.336 118.634 243.324 118.745 244.285 118.582C254.797 116.782 266.209 116.296 273.571 126.304C260.053 131.704 255.571 129.706 256.039 132.784C256.795 137.374 272.689 130.858 275.677 130.156C277.555 134.283 278.851 138.65 279.529 143.134C268.729 148.336 262.051 146.734 262.519 149.974C263.401 153.484 274.615 149.452 280.231 147.688C280.634 150.452 280.419 153.271 279.6 155.942C278.782 158.613 277.38 161.068 275.497 163.132C273.697 165.274 276.721 168.748 280.231 164.014C286.549 155.77 284.965 146.824 283.219 138.58C276.559 108.754 254.275 112.444 243.619 114.028C235.375 102.616 216.259 102.436 214.153 118.222C214.153 118.762 212.911 119.284 212.209 119.464C191.869 125.242 200.995 119.986 188.017 110.338C195.379 101.212 201.859 88.9356 199.591 77.9376C198.133 70.7376 193.183 74.3376 184.669 47.4276C176.155 21.3636 143.539 8.09758 117.565 17.3316C116.097 17.8344 114.514 17.897 113.011 17.5116C83.3647 10.3116 51.6127 26.2776 41.6227 53.2956C36.8707 65.8956 34.4227 69.6036 26.1787 74.5176C9.69073 84.3456 28.4647 108.898 42.4867 119.518C24.2527 133.27 1.44672 164.32 11.4367 195.73C16.8367 212.56 32.8747 225.448 52.1347 242.728C71.8447 260.404 97.3327 277.108 116.683 259.036C141.415 236.59 127.033 217.816 123.181 210.976C130.201 196.774 119.491 185.2 104.929 191.86ZM115.981 157.66C112.831 156.778 104.065 150.46 97.7467 143.98C108.177 146.183 118.868 146.892 129.499 146.086C123.361 152.566 117.565 157.66 115.981 157.66ZM142.477 61.3596C142.607 61.7547 142.87 62.0926 143.221 62.3158C143.572 62.5389 143.99 62.6336 144.403 62.5836C152.287 60.1356 167.911 51.7836 172.285 66.7956C160.369 61.1796 138.265 63.1956 137.563 81.0156C136.314 80.342 135.028 79.741 133.711 79.2156C129.841 77.6316 127.555 81.8436 130.111 82.5456C133.117 83.4096 140.713 86.8116 140.281 90.2676C140.281 92.8956 137.995 96.9276 136.069 99.5556C135.025 100.96 136.069 102.364 137.653 102.364C139.759 102.544 141.505 99.3936 143.611 94.4796C152.377 100.096 168.163 100.258 175.003 92.1936C174.661 102.022 176.065 111.994 171.403 120.616C155.617 153.412 57.5527 147.616 55.4467 103.426C54.5827 85.4256 68.7847 97.1076 72.2947 86.0556C76.5067 71.6556 82.8247 63.7896 90.1867 59.3976C99.8347 57.4716 111.589 59.0376 117.367 61.5036C119.653 62.5476 121.057 59.0376 119.833 58.1736C116.845 56.0676 108.421 54.8436 104.569 54.5736C112.813 52.1256 128.077 55.7976 133.855 48.9576C138.949 52.6476 144.907 53.8716 152.107 55.0956C147.607 56.9856 141.073 57.6876 142.477 61.3596ZM155.977 68.7216C154.051 75.9216 152.125 85.7496 150.901 92.9316C148.549 92.3697 146.376 91.2245 144.583 89.6016C144.364 87.5914 143.432 85.7263 141.955 84.3456C140.713 74.3376 147.733 68.7216 155.977 68.7216ZM37.9327 109.942C29.5087 101.536 17.9347 84.7416 28.2847 78.3696C37.7527 72.5916 40.8847 68.0196 45.6547 54.9696C55.1227 28.6716 85.8127 14.6316 113.875 21.9936C115.324 22.363 116.849 22.3068 118.267 21.8316C128.736 18.2189 140.083 18.0298 150.667 21.2916C141.468 20.2506 132.163 21.8358 123.829 25.8636C121.512 26.8749 118.933 27.1208 116.467 26.5656C79.4407 17.4396 58.2187 40.7676 53.8447 53.4036C48.9307 67.6056 54.1867 72.3396 48.9307 76.8936C45.2407 80.0616 37.1767 78.8376 33.6667 82.2936C29.1667 87.1536 33.1987 101.176 37.9327 109.942ZM124.207 242.386C113.065 235.942 111.607 229.786 108.961 232.558C105.451 236.248 119.131 244.132 122.101 246.238C119.484 250.454 116.167 254.191 112.291 257.29C101.761 249.766 100.627 244.132 97.5487 246.58C94.3987 249.748 105.613 257.11 108.349 259.918C96.2527 266.578 81.1687 261.718 61.3507 245.014C68.8927 233.782 89.5927 205.54 103.795 197.296C116.593 189.754 124.135 198.52 119.059 209.23C118.655 210.104 118.506 211.075 118.631 212.031C118.755 212.986 119.147 213.887 119.761 214.63C123.523 219.22 129.841 229.498 124.207 242.386Z" fill="#001434"/>
<path d="M106.206 110.123C97.2062 120.923 112.164 129.419 127.428 130.301C145.428 131.183 151.8 112.301 142.152 109.601C137.076 108.197 135.312 111.401 129.552 111.005C119.742 110.699 115.296 99.4848 106.206 110.123ZM137.418 114.155C147.066 110.825 142.008 127.205 125.844 125.909C114.63 125.009 105.504 119.069 108.312 114.695C109.761 116.078 111.592 116.994 113.568 117.323C115.674 117.323 116.52 115.253 114.792 114.155C113.483 113.305 112.275 112.308 111.192 111.185C115.98 106.271 122.658 119.429 137.382 114.155H137.418Z" fill="#001434"/>
<path d="M193.507 288.501C191.239 283.947 188.953 279.393 186.847 274.479C190.784 272.888 195.186 272.888 199.123 274.479C200.185 275.001 201.787 274.839 202.111 273.597C203.443 268.539 191.419 266.937 185.101 270.447C184.219 268.647 182.995 265.353 180.889 266.235C178.081 267.459 180.367 270.447 181.069 272.373C178.358 273.748 176.21 276.023 174.992 278.807C173.773 281.592 173.561 284.713 174.391 287.637C176.677 295.359 184.039 294.477 190.879 293.415C194.209 300.093 197.377 306.393 200.185 313.071C194.569 314.637 188.071 314.115 183.517 310.443C183.06 310.087 182.49 309.908 181.912 309.938C181.333 309.968 180.785 310.204 180.367 310.605C177.379 317.625 197.377 319.731 201.751 317.103C203.551 320.253 203.695 322.233 205.963 322.017C209.131 321.711 206.503 317.625 205.801 315.519C226.663 304.989 212.983 282.723 193.507 288.501ZM178.783 286.413C177.379 281.499 180.187 278.331 182.995 276.405C184.921 280.797 187.027 285.009 189.133 289.203C182.815 290.265 179.827 289.905 178.783 286.413ZM204.397 311.487C201.589 304.827 198.601 298.689 195.613 292.713C211.219 288.663 218.473 305.457 204.397 311.487Z" fill="#001434"/>
<path d="M325.069 202.029C315.241 172.743 306.295 168.531 272.977 182.229C274.543 168.369 259.459 165.039 248.425 169.629C251.215 165.237 254.023 156.111 247.885 155.769C241.747 155.427 240.883 151.377 237.373 152.601C235.429 153.141 235.267 155.589 235.267 156.291C234.205 163.833 227.545 176.811 215.611 187.341C214.531 186.941 213.416 186.646 212.281 186.459C201.877 163.959 212.047 157.137 208.069 153.843C205.801 151.377 201.751 154.887 196.675 154.185C189.133 152.961 191.941 166.641 193.687 171.897C190.562 169.435 187.218 167.266 183.697 165.417C187.297 154.887 187.729 148.407 178.603 135.249C178.449 135.009 178.247 134.803 178.01 134.645C177.774 134.487 177.507 134.379 177.226 134.328C176.946 134.277 176.658 134.285 176.381 134.35C176.104 134.416 175.843 134.538 175.615 134.709C171.583 139.101 187.207 146.463 179.665 163.653C175.273 162.087 170.863 161.673 167.551 163.491C155.149 170.277 164.401 185.091 163.951 195.063C161.845 206.457 147.643 208.905 158.551 222.423C137.851 228.381 129.445 237.507 136.285 256.803C143.125 275.739 160.315 322.053 163.645 330.459C168.379 342.393 173.995 346.947 184.345 347.127C203.065 347.127 324.745 299.679 335.887 294.927C351.493 288.267 353.779 280.203 348.163 263.715C343.537 250.305 325.357 202.245 325.069 202.029ZM320.515 202.731C303.487 208.527 283.327 216.069 263.671 223.431C263.851 220.101 262.969 216.069 263.509 212.739C287.179 203.973 303.847 197.997 316.807 193.497C317.707 195.729 319.111 198.897 320.515 202.731ZM272.095 187.125C293.695 178.539 309.625 173.967 315.061 189.411C302.461 193.785 286.999 200.463 264.373 207.645C266.407 200.697 270.511 194.487 272.095 187.125ZM239.695 156.957C242.131 158.318 244.724 159.376 247.417 160.107C246.013 171.339 229.417 185.199 220.579 190.707C220.237 190.347 220.057 190.005 219.697 189.825C231.757 178.539 238.417 165.381 239.641 156.957H239.695ZM230.407 213.297C225.007 211.713 223.567 209.697 219.175 207.339C219.268 206.742 219.268 206.135 219.175 205.539L220.237 203.973C223.837 203.613 241.981 207.573 241.981 202.569C241.926 202.107 241.695 201.685 241.336 201.39C240.977 201.094 240.518 200.949 240.055 200.985C231.811 202.029 227.779 200.805 221.281 200.463C221.309 200.099 221.247 199.734 221.101 199.401C221.933 198.223 222.368 196.81 222.343 195.369C234.259 196.251 261.619 194.145 264.607 184.839C267.595 175.533 255.481 176.595 246.373 180.987C241.981 183.093 243.385 185.541 245.491 184.587C275.137 173.175 262.159 194.055 226.375 191.787C231.867 187.638 237.025 183.064 241.801 178.107C249.343 170.565 268.297 167.055 268.801 180.573C268.099 194.073 257.569 203.541 259.333 217.923C261.997 244.923 234.295 246.327 214.945 211.605C215.793 211.293 216.57 210.816 217.231 210.201C219.859 211.083 229.327 218.985 231.631 215.295C232.099 214.485 231.235 213.441 230.407 213.297ZM218.293 225.051C215.143 226.275 211.993 227.337 209.005 228.651C206.197 221.289 204.091 215.835 202.867 212.163C203.569 211.983 204.091 211.641 204.793 211.461C206.518 212.148 208.34 212.561 210.193 212.685C212.594 216.971 215.283 221.09 218.239 225.015L218.293 225.051ZM217.429 193.821C218.653 196.467 215.629 197.853 216.727 200.499C217.429 202.299 213.127 204.009 214.621 206.097C214.711 206.226 214.759 206.38 214.759 206.538C214.759 206.695 214.711 206.849 214.621 206.979C211.993 209.967 203.479 207.861 203.389 203.829C203.389 202.425 204.091 202.767 204.451 201.723C204.793 200.139 201.661 198.609 203.389 197.511C203.886 197.214 204.264 196.753 204.458 196.208C204.651 195.662 204.649 195.066 204.451 194.523C202.633 188.097 216.313 191.697 217.375 193.785L217.429 193.821ZM196.207 158.541C198.994 158.34 201.755 157.87 204.451 157.137C202.651 163.095 201.463 172.563 207.421 186.423C206.899 186.423 206.377 186.603 206.017 186.603C198.601 174.489 195.271 165.021 196.207 158.541ZM168.613 195.297C169.315 187.035 160.891 171.087 169.837 167.235C178.783 163.383 198.079 178.467 202.111 188.637C201.036 189.751 200.305 191.15 200.005 192.669C193.867 190.383 179.485 184.245 176.155 174.957C178.081 174.777 184.111 177.729 190.717 182.157C192.517 183.435 193.345 181.977 192.805 181.275C188.431 175.317 177.721 169.359 173.869 171.987C169.135 174.813 176.893 188.043 198.961 196.017C198.961 196.197 198.781 196.377 198.781 196.719C192.805 196.539 189.133 197.763 182.113 196.197C181.231 196.017 179.827 196.539 180.007 197.601C180.709 201.453 195.271 199.527 198.961 200.229C199.123 200.751 199.303 201.111 199.483 201.633C199.335 201.902 199.272 202.209 199.303 202.515C193.165 202.677 190.879 205.665 184.561 205.143C183.697 205.143 182.293 205.845 182.635 206.709C184.219 211.623 195.613 205.485 199.663 205.845C199.965 206.602 200.377 207.312 200.887 207.951C187.027 212.865 175.795 216.537 163.699 220.749C151.873 209.697 167.569 207.465 168.613 195.297ZM198.781 213.297C200.005 216.897 202.111 222.405 204.919 229.785C178.081 239.955 155.455 249.081 140.119 253.185C133.567 230.559 145.645 232.467 198.781 213.441V213.297ZM141.595 257.469C157.903 252.195 186.595 240.099 221.227 228.525C223.769 231.423 226.591 234.064 229.651 236.409C195.793 249.225 161.071 262.545 145.051 267.639C143.701 263.697 142.477 260.439 141.595 257.469ZM168.253 328.857C165.625 322.359 154.393 293.415 146.653 271.671C161.737 265.173 184.003 258.333 212.065 247.821C218.041 262.905 221.371 272.193 228.553 289.221C233.467 300.453 239.353 312.621 243.115 325.365C183.157 346.857 175.633 347.055 168.253 328.857ZM247.183 323.763C240.181 306.231 231.397 286.233 223.783 267.117C220.975 260.277 218.509 252.555 216.061 246.417C219.391 245.193 222.721 243.951 226.051 242.547C237.103 267.639 245.527 294.117 257.281 320.253C253.807 321.477 250.513 322.719 247.183 323.763ZM334.357 290.967C329.281 293.595 294.757 306.573 261.403 318.687C249.289 293.487 239.803 265.713 230.173 240.981L234.385 239.397C245.185 245.895 261.223 242.385 263.329 228.597C283.669 220.875 303.847 212.109 322.261 206.997C329.803 226.293 341.197 256.641 344.185 265.227C349.099 279.555 347.407 284.469 334.357 290.967Z" fill="#001434"/>
<path d="M315.007 224.837C304.675 224.837 299.221 228.005 300.103 239.741C266.605 251.675 261.169 251.675 263.617 259.037C264.679 262.025 273.625 275.003 282.391 274.661C288.007 274.301 296.251 270.089 301.165 268.343C301.327 270.629 301.327 272.717 301.507 274.481C300.403 274.707 299.406 275.295 298.675 276.153C297.945 277.011 297.522 278.089 297.475 279.215C295.027 280.097 292.381 281.015 289.933 281.843C289.255 281.13 288.401 280.61 287.457 280.334C286.514 280.058 285.514 280.037 284.559 280.273C283.605 280.509 282.729 280.993 282.022 281.676C281.315 282.359 280.801 283.217 280.533 284.163C280.171 285.428 280.268 286.78 280.807 287.981C282.913 293.075 291.337 291.851 291.337 286.055L298.807 283.499C304.513 289.565 313.081 279.791 306.007 275.075C305.485 265.949 304.207 243.503 304.423 234.215C304.603 229.643 311.443 229.481 315.655 228.239C318.229 227.465 316.645 224.837 315.007 224.837ZM283.615 269.927C277.297 271.727 266.947 259.037 267.307 256.769C267.829 253.961 284.839 249.227 300.103 244.169C300.283 250.307 300.463 257.327 300.805 263.645C298.231 264.653 288.763 268.523 283.669 269.927H283.615Z" fill="#001434"/>
</svg>
