<svg width="28" height="18" viewBox="0 0 28 18" fill="none" xmlns="http://www.w3.org/2000/svg">
<path d="M8.64612 0.683105C9.4333 0.683105 10.151 0.752931 10.7992 0.892847C11.4475 1.03263 12.0032 1.26194 12.4661 1.57999C12.9291 1.89844 13.288 2.32176 13.5427 2.84995C13.7974 3.37813 13.9247 4.03037 13.9247 4.80691C13.9247 5.64574 13.7356 6.34466 13.3575 6.90366C12.9792 7.46279 12.4199 7.92089 11.6791 8.27822C12.6977 8.57339 13.4578 9.09007 13.9595 9.82747C14.4608 10.5654 14.7122 11.4548 14.7122 12.4951C14.7122 13.3338 14.5501 14.0601 14.2258 14.6737C13.9019 15.2875 13.4656 15.7883 12.9179 16.176C12.3699 16.5646 11.7448 16.8517 11.0426 17.0384C10.3361 17.2252 9.60846 17.319 8.87794 17.3177H0.867188V0.683105H8.64612ZM8.18314 7.41638C8.83142 7.41638 9.36378 7.26112 9.78064 6.95034C10.1974 6.63983 10.4057 6.13492 10.4057 5.436C10.4057 5.04786 10.3363 4.72928 10.1974 4.48079C10.0585 4.23244 9.87329 4.0379 9.64173 3.89839C9.41017 3.75847 9.14393 3.6618 8.84298 3.60705C8.53344 3.55204 8.21966 3.52478 7.90532 3.52559H4.50203V7.41651H8.18314V7.41638ZM8.39143 14.4754C8.74626 14.4754 9.08597 14.4403 9.41004 14.3705C9.73412 14.3005 10.0196 14.184 10.2667 14.0208C10.5134 13.858 10.7103 13.6365 10.8571 13.3568C11.0036 13.0774 11.0769 12.7202 11.0769 12.2851C11.0769 11.4312 10.8375 10.8216 10.3593 10.4564C9.88065 10.0914 9.24788 9.9088 8.46082 9.9088H4.50203V14.4751L8.39143 14.4754ZM19.2864 14.126C19.7802 14.6079 20.4903 14.8482 21.4164 14.8482C22.0798 14.8482 22.651 14.6815 23.1294 14.3474C23.6079 14.0138 23.9012 13.6602 24.0092 13.2873H26.9031C26.4403 14.7317 25.73 15.7648 24.7733 16.3858C23.816 17.0072 22.6584 17.3177 21.3003 17.3177C20.3589 17.3177 19.5098 17.1663 18.7536 16.8633C17.9972 16.5606 17.3565 16.1295 16.8322 15.5704C16.3073 15.0114 15.9021 14.3439 15.6166 13.567C15.3309 12.7906 15.1884 11.9361 15.1884 11.0042C15.1884 10.1036 15.3347 9.2649 15.6283 8.48822C15.9212 7.71181 16.3378 7.04001 16.8786 6.47281C17.4184 5.90613 18.063 5.45954 18.8117 5.13329C19.5601 4.80704 20.3898 4.64412 21.3005 4.64412C22.3192 4.64412 23.2065 4.84209 23.9631 5.23816C24.7191 5.63411 25.3405 6.16666 25.8268 6.83397C26.313 7.50194 26.6638 8.26314 26.8804 9.11705C27.0965 9.97149 27.1733 10.8644 27.112 11.7963H18.4763C18.5225 12.8678 18.7921 13.6447 19.2864 14.126ZM23.0022 7.78904C22.6087 7.35435 22.0104 7.13668 21.2081 7.13668C20.6832 7.13668 20.2473 7.22621 19.9001 7.40461C19.5528 7.58353 19.2748 7.80438 19.0664 8.06861C18.8582 8.33284 18.7113 8.61253 18.6267 8.90731C18.5416 9.20248 18.4914 9.46657 18.4761 9.69946H23.8241C23.6698 8.86063 23.3959 8.224 23.0022 7.78904ZM17.9147 1.52776H24.5967V3.39215H17.9147V1.52776Z" fill="white"/>
</svg>
