<svg width="36" height="36" viewBox="0 0 36 36" fill="none" xmlns="http://www.w3.org/2000/svg">
<path d="M9.97959 14.223C9.04405 15.3272 8.34741 16.6132 7.93359 18C9.22559 22.338 13.2436 25.5 17.9996 25.5C18.9926 25.5 19.9526 25.362 20.8626 25.105M12.2276 12.228C13.9402 11.0979 15.9477 10.4969 17.9996 10.5C22.7556 10.5 26.7726 13.662 28.0646 17.998C27.3566 20.3673 25.8366 22.4116 23.7716 23.772M12.2276 12.228L8.99959 9M12.2276 12.228L15.8776 15.878M23.7716 23.772L26.9996 27M23.7716 23.772L20.1216 20.122C20.4002 19.8434 20.6212 19.5127 20.772 19.1486C20.9227 18.7846 21.0003 18.3945 21.0003 18.0005C21.0003 17.6065 20.9227 17.2164 20.772 16.8524C20.6212 16.4883 20.4002 16.1576 20.1216 15.879C19.843 15.6004 19.5122 15.3794 19.1482 15.2286C18.7842 15.0778 18.3941 15.0002 18.0001 15.0002C17.6061 15.0002 17.216 15.0778 16.8519 15.2286C16.4879 15.3794 16.1572 15.6004 15.8786 15.879M20.1206 20.121L15.8796 15.88" stroke="#8447FF" stroke-width="1.5" stroke-linecap="round" stroke-linejoin="round"/>
</svg>
