<svg width="14" height="15" viewBox="0 0 14 15" fill="none" xmlns="http://www.w3.org/2000/svg">
<path fill-rule="evenodd" clip-rule="evenodd" d="M2.11164 0.5C1.5516 0.5 1.01449 0.722476 0.618485 1.11848C0.222476 1.51449 0 2.0516 0 2.61164L0 5.65099C0.000119598 6.21099 0.222674 6.748 0.61871 7.14392L7.36188 13.8878C8.00945 14.5354 9.04415 14.7226 9.85924 14.1891C11.3855 13.1896 12.6893 11.8861 13.6891 10.3599C14.2226 9.54345 14.0354 8.50945 13.3878 7.86258L6.64462 1.11871C6.4485 0.922529 6.21565 0.766912 5.95936 0.660752C5.70308 0.554591 5.42839 0.499967 5.15099 0.5H2.11164ZM2.9035 4.19537C3.11352 4.19537 3.31493 4.11194 3.46344 3.96344C3.61194 3.81493 3.69537 3.61352 3.69537 3.4035C3.69537 3.19349 3.61194 2.99207 3.46344 2.84357C3.31493 2.69507 3.11352 2.61164 2.9035 2.61164C2.69349 2.61164 2.49207 2.69507 2.34357 2.84357C2.19507 2.99207 2.11164 3.19349 2.11164 3.4035C2.11164 3.61352 2.19507 3.81493 2.34357 3.96344C2.49207 4.11194 2.69349 4.19537 2.9035 4.19537Z" fill="black"/>
</svg>
