<svg width="36" height="36" viewBox="0 0 36 36" fill="none" xmlns="http://www.w3.org/2000/svg">
<path d="M8.03613 18.322C7.96712 18.1146 7.96712 17.8904 8.03613 17.683C9.42313 13.51 13.3601 10.5 18.0001 10.5C22.6381 10.5 26.5731 13.507 27.9631 17.678C28.0331 17.885 28.0331 18.109 27.9631 18.317C26.5771 22.49 22.6401 25.5 18.0001 25.5C13.3621 25.5 9.42613 22.493 8.03613 18.322Z" stroke="#8447FF" stroke-width="1.5" stroke-linecap="round" stroke-linejoin="round"/>
<path d="M21 18C21 18.7956 20.6839 19.5587 20.1213 20.1213C19.5587 20.6839 18.7956 21 18 21C17.2044 21 16.4413 20.6839 15.8787 20.1213C15.3161 19.5587 15 18.7956 15 18C15 17.2044 15.3161 16.4413 15.8787 15.8787C16.4413 15.3161 17.2044 15 18 15C18.7956 15 19.5587 15.3161 20.1213 15.8787C20.6839 16.4413 21 17.2044 21 18Z" stroke="#8447FF" stroke-width="1.5" stroke-linecap="round" stroke-linejoin="round"/>
</svg>
