<svg width="417" height="417" viewBox="0 0 417 417" fill="none" xmlns="http://www.w3.org/2000/svg">
<g clip-path="url(#clip0_1993_9799)">
<path d="M217.789 221.619C224.093 213.178 243.073 185.492 227.137 176.878C215.867 170.962 208.027 185.076 208.027 185.076C208.027 185.076 189.03 169.208 180.426 183.618C168.616 203.249 202.37 218.708 212.799 223.089C213.674 223.447 214.645 223.496 215.552 223.229C216.459 222.962 217.248 222.394 217.789 221.619Z" fill="#FFC619"/>
<path d="M323.254 101.995C319.838 104.091 323.284 109.732 326.613 107.259C330.197 105.204 326.211 99.6648 323.254 101.995Z" fill="#FFC619"/>
<path d="M98.3266 42.4708C101.929 43.156 102.782 37.4434 99.3275 36.8824C95.8726 36.3214 94.7986 42.1411 98.3266 42.4708Z" fill="#FFC619"/>
<path d="M343.954 101.478C343.635 101.535 343.34 101.687 343.107 101.913C342.875 102.139 342.715 102.429 342.648 102.746C342.604 102.957 342.603 103.174 342.644 103.385C343.65 109.348 336.41 115.094 330.669 111.836C328.686 110.845 327.253 113.932 329.126 114.718C342.576 121.546 350.506 102.016 343.954 101.478Z" fill="#FFC619"/>
<path d="M188.069 50.0699C175.362 43.7747 166.683 59.1626 166.683 59.1626C135.115 32.0561 105.679 77.6542 172.019 103.654C172.92 104.044 173.924 104.126 174.877 103.889C175.83 103.651 176.678 103.107 177.291 102.34C184.842 92.8479 208.949 60.2239 188.069 50.0699Z" fill="#FFC619"/>
<path d="M322.297 87.3714C312.861 93.1606 309.363 107.764 316.192 116.418C327.109 132.413 352.199 125.735 355.384 107.468C358.638 90.2475 336.311 77.526 322.297 87.3714ZM343.473 119.363C324.219 131.72 303.924 103.174 324.055 90.1915C343.454 77.6732 364.301 105.997 343.473 119.363Z" fill="#FFC619"/>
<path d="M101.675 185.243C94.1032 183.252 92.0314 191.16 92.0314 191.16C72.1058 183.474 66.1585 210.159 102.131 213.462C102.131 213.462 114.293 188.425 101.675 185.243Z" fill="#FFC619"/>
<path d="M111.43 62.9151C129.746 47.2768 107.333 19.9288 87.638 33.3888C68.0201 48.7508 91.5292 78.0495 111.43 62.9151ZM87.6703 58.2549C74.1873 42.5874 96.6734 23.559 110.928 38.4518C124.207 54.6745 100.628 73.3701 87.6871 58.2589L87.6703 58.2549Z" fill="#FFC619"/>
<path d="M109.56 49.2837C107.671 46.4147 102.814 50.2265 105.422 52.9124C107.594 56.0091 112.005 51.9126 109.56 49.2837Z" fill="#FFC619"/>
<path d="M236.265 294.115L243.054 316.069C243.054 316.069 252.145 294.579 265.749 291.493C279.352 288.408 285.293 297.951 285.293 297.951C292.806 289.826 298.268 280.022 301.222 269.357C305.721 253.465 292.867 218.332 290.548 207.986L259.114 218.226C267.976 245.473 278.311 281.034 236.265 294.115Z" fill="#FFC619"/>
<path d="M102.272 147.665C132.144 163.9 155.239 116.96 124.472 102.235C90.3953 86.3436 73.4236 134.057 102.272 147.665Z" fill="#FFC619"/>
<path d="M336.427 98.5564C340.425 98.9989 341.016 92.9745 337.081 92.1919C333.23 91.8738 332.264 97.9857 336.427 98.5564Z" fill="#FFC619"/>
<path d="M100.646 55.7128C99.3697 55.9224 98.0604 55.7864 96.8543 55.3188C95.6481 54.8511 94.5893 54.0689 93.7878 53.0535C92.9863 52.0382 92.4714 50.8266 92.2967 49.5449C92.1219 48.2631 92.2937 46.958 92.7941 45.7651C92.8519 45.4096 92.7973 45.0449 92.6377 44.722C92.4782 44.3991 92.2217 44.1342 91.9042 43.9642C91.5867 43.7942 91.224 43.7276 90.8668 43.7738C90.5096 43.82 90.1758 43.9767 89.912 44.2219C86.5644 48.9995 91.2803 61.3588 101.458 58.999C103.354 58.7246 102.789 55.373 100.646 55.7128Z" fill="#FFC619"/>
<path d="M164.069 130.91C140.129 136.868 144.748 153.859 152.243 201.8C140.092 203.865 125.95 206.305 125.731 217.234C125.496 230.38 137.5 269.805 147.007 294.506C151.49 306.579 160.847 316.176 173.962 322.622C183.492 369.486 190.444 374.066 207.834 376.685C220.59 378.55 252.617 373.694 271.686 368.488C354.939 345.908 354.9 346.218 341.032 277.259C338.718 265.778 326.203 205.636 323.954 193.956C330.145 195.262 331.12 195.495 332.085 194.358C334.039 192.356 326.959 191.353 321.296 189.997C322.86 184.206 328.043 165.386 329.293 156.606C335.652 157.951 337.844 158.814 338.641 157.637C339.723 156.013 337.135 155.393 329.583 153.246C329.531 139.96 316.482 138.577 311.935 147.473C307.841 125.917 302.035 107.202 271.526 110.022C254.55 111.091 177.749 127.505 164.069 130.91ZM145.944 207.327C151.46 205.734 165.15 203.7 166.292 206.87C168.118 208.516 171.965 221.094 175.395 231.848C162.081 235.873 155.483 239.09 134.72 243.428C126.815 211.968 128.016 211.402 145.944 207.327ZM257.036 131.57C286.466 126.803 289.613 120.858 297.208 153.541C289.056 163.245 289.126 182.985 304.337 188.174C309.035 216.556 324.546 288.521 327.567 318.119C329.312 335.168 311.252 336.83 295.864 341.727C294.914 336.347 290.318 309.019 288.806 303.167C319.662 275.233 308.301 238.911 299.092 205.841C295.467 196.569 293.156 178.175 285.177 174.398C281.155 172.493 269.042 174.994 259.36 178.325C239.441 184.855 237.07 183.328 255.331 236.69C239.251 230.084 197.813 239.883 188.203 257.304C183.241 245.827 174.04 207.607 168.586 203.226C157.508 143.465 162.414 149.171 185.03 144.584C189.188 143.696 189.758 145.396 190.695 148.162C192.344 153.07 195.972 155.431 201.794 155.458C209.489 155.524 239.391 148.862 247.49 146.502C260.933 142.454 252.203 132.314 257.036 131.57ZM207.443 330.766C215.818 330.888 225.117 330.717 233.024 328.488C235.598 327.731 237.964 326.394 239.94 324.578C241.915 322.762 243.447 320.517 244.417 318.015C250.778 302.214 258.9 294.049 269.087 293.06C272.454 292.643 275.861 293.424 278.711 295.266C281.56 297.109 283.671 299.894 284.673 303.136C287.424 313.905 289.66 330.983 292.268 343.016C280.825 346.281 246.5 356.574 212.28 357.973C211.249 352.413 207.867 334.634 207.426 330.762L207.443 330.766ZM207.78 357.251C195.577 354.488 195.22 337.433 192.174 328.637C195.822 329.469 199.519 330.064 203.244 330.418C204.314 339.452 206.413 347.826 207.763 357.247L207.78 357.251ZM214.435 277.908C214.516 281.873 216.515 287.842 218.723 293.684C205.243 292.694 192.898 284.069 190.174 269.699C187.217 241.094 252.023 233.143 257.941 243.747C266.901 259.824 263.842 276.38 249.559 286.161C246.027 276.573 244.275 268.087 241.043 268.005C239.864 267.883 239.322 269.477 239.728 270.604C239.691 270.756 243.564 281.811 245.939 288.368C238.983 292.173 231.173 294.142 223.245 294.092C220.927 288.046 218.501 278.882 217.531 275.736C216.47 272.23 214.348 274.636 214.418 277.904L214.435 277.908ZM261.712 241.577C259.677 235.758 257.478 229.581 254.731 221.39C274.574 216.885 280.242 212.805 295.646 208.73C303.993 239.017 314.883 273.004 287.279 298.785C275.492 279.97 252.142 289.694 243.348 310.385C242.014 305.943 240.05 299.822 238.843 295.589C263.417 288.095 274.759 264.407 261.696 241.573L261.712 241.577ZM263.974 181.243C277.004 176.99 282.014 177.514 283.927 178.133C289.342 182.006 291.439 196.919 294.537 204.679C276.352 209.759 274.113 212.652 253.414 217.467C249.532 205.041 246.01 192.594 247.453 189.386C247.29 186.504 256.762 183.46 263.974 181.243ZM185.737 268.121L172.041 237.246C173.736 236.621 175.391 236.165 176.674 235.779C179.316 245.047 182.471 254.161 186.127 263.079C185.751 264.73 185.62 266.43 185.737 268.121ZM151.149 292.94C145.738 278.441 140.079 261.858 135.993 247.464C137.866 247.06 139.418 246.739 141.073 246.282C144.068 254.551 153.648 283.25 157.285 291.655C166.418 312.873 199.767 325.498 225.1 325.666C199.33 330.884 161.288 320.049 151.149 292.94ZM342.562 307.744C346.376 334.031 336.492 341.614 331.398 344.339C307.257 357.071 228.902 375.672 208.396 372.484C198.358 370.773 186.948 369.746 178.583 324.475C181.508 325.736 184.534 326.752 187.628 327.513C191.864 343.435 193.177 365.178 219.179 361.811C258.852 356.565 279.616 350.735 295.068 346.387C310.52 342.039 334.693 337.701 331.959 317.66C327.417 284.695 314.76 223.365 309.052 189.925C312.482 191.074 315.99 191.973 319.549 192.617C321.164 210.204 336.808 270.189 342.562 307.744ZM314.794 149.189C316.83 145.732 319.229 144.245 322.564 145.382C332.229 148.727 318.298 183.966 317.901 189.184C306.138 186.366 296.131 183.632 295.21 172.271C299.992 173.078 302.463 174.185 303.301 172.84C304.484 170.867 302.585 170.412 295.275 168.661C295.395 165.98 295.915 163.332 296.819 160.804C299.703 161.673 301.937 161.692 304.808 162.54C305.012 162.64 305.236 162.692 305.463 162.693C305.69 162.694 305.914 162.644 306.118 162.546C306.323 162.448 306.503 162.305 306.644 162.127C306.786 161.95 306.886 161.743 306.936 161.521C307.311 159.213 302.297 158.634 298.415 157.704C303.177 149.32 311.918 154.666 314.861 149.205L314.794 149.189ZM308.242 148.65C305.651 148.768 303.14 149.585 300.977 151.014C293.908 118.582 287.601 121.247 256.334 127.973C245.478 130.348 257.988 139.688 246.77 142.829C238.107 145.391 209.136 151.584 202.297 151.722C197.527 151.61 196.055 149.89 195.009 147.063C193.963 144.236 192.401 139.331 184.879 140.692C173.215 142.873 157.917 141.608 159.175 162.841C159.655 171.52 162.983 192.716 164.363 201.273C161.861 201.002 159.338 200.993 156.835 201.247C147.976 149.213 147.249 139.266 165.357 134.879C178.557 131.697 255.821 115.056 272.19 114.002C304.824 111.654 303.579 131.914 308.305 148.683L308.242 148.65Z" fill="#001434"/>
<path d="M84.8731 277.581C82.1609 293.207 88.6472 299.807 107.473 303.552C117.112 305.523 119.12 306.857 121.168 305.055C122.858 303.044 119.521 302.884 111.992 301.081C115.121 294.474 118.501 280.358 119.208 269.546C125.411 270.872 127.61 271.558 128.273 270.349C129.623 268.273 125.792 267.871 119.342 266.166C120.39 253.482 106.245 250.592 103.023 261.227C102.025 265.395 87.9851 258.727 84.8731 277.581ZM105.572 263.49C107.099 258.525 109.342 257.766 111.472 258.222C122.401 260.591 110.549 297.092 108.721 300.421C98.1842 297.898 89.1459 295.573 87.8718 285.833C91.962 286.635 94.282 287.706 95.1557 286.209C96.0294 284.713 93.2372 284.204 87.674 282.356C87.7615 279.562 88.2507 276.794 89.1267 274.139C91.2441 274.647 93.1572 275.265 94.9747 275.54C96.7922 275.816 98.0064 273.565 95.9541 272.861C93.4138 271.968 92.9191 271.956 90.5226 271.204C94.4103 264.246 103.893 269.094 105.572 263.49Z" fill="#001434"/>
<path d="M237.691 90.6001C246.697 106.635 265.453 97.7648 279.549 91.8834C282.068 90.7101 281.499 87.3754 280.123 88.0763C277.672 89.0352 275.336 90.1816 272.677 91.2682C271.408 85.8113 267.566 70.3209 264.608 61.9007C268.771 60.3213 270.461 60.3884 270.532 58.6819C270.603 56.9754 269.791 56.7278 263.407 58.7524C259.322 45.7624 243.513 49.5274 245.408 62.3128C232.652 65.0501 231.27 80.8353 237.691 90.6001ZM246.868 75.136C246.887 72.9019 242.858 73.9979 237.529 75.4757C237.798 64.1148 249.596 68.3444 248.798 61.3656C248.357 57.4931 250.367 52.6617 255.315 54.1844C263.315 56.6158 267.251 86.699 269.569 92.745C258.494 96.7733 248.495 99.8689 241.973 91.2703C246.095 89.8589 248.825 89.1446 248.944 87.9824C249.676 84.924 247.051 86.9073 239.962 88.3898C238.366 85.4534 237.446 82.1978 237.269 78.8605C244.807 76.6149 246.817 76.8297 246.868 75.136Z" fill="#001434"/>
<path d="M167.888 96.3409C170.608 97.1522 173.177 95.0312 170.127 93.4477C167.077 91.8643 162.164 88.7863 161.337 90.8272C160.511 92.8681 165.67 95.4365 167.888 96.3409Z" fill="#001434"/>
<path d="M126.788 121.202C121.613 123.517 125.514 130.155 130.132 128.009C134.751 125.864 131.235 119.105 126.788 121.202Z" fill="#001434"/>
<path d="M214.87 142.918C223.26 141.498 225.382 139.093 224.874 136.91C224.315 134.2 221.92 132.773 211.835 134.818C202.638 136.719 201.475 138.68 201.815 140.822C202.155 142.965 204.362 144.506 214.87 142.918Z" fill="#001434"/>
<path d="M240.536 139.559C247.841 138.733 246.556 126.591 238.329 128.743C230.102 130.894 233.281 140.469 240.536 139.559Z" fill="#001434"/>
<path d="M103.482 118.283C107.954 120.384 111.162 113.441 106.869 111.56C106.313 111.25 105.688 111.086 105.052 111.083C104.416 111.08 103.79 111.238 103.231 111.543C102.673 111.848 102.201 112.289 101.859 112.826C101.518 113.362 101.318 113.977 101.278 114.612C101.229 115.375 101.414 116.135 101.808 116.791C102.201 117.446 102.785 117.967 103.482 118.283Z" fill="#001434"/>
<path d="M137.194 70.6364C138.163 71.5614 140.386 70.8856 139.606 69.1707C138.149 65.9076 135.434 60.1045 140.337 53.2118C148.981 40.7119 160.431 48.7673 169.704 54.4175C173.862 57.0126 178.201 39.7858 191.592 46.1203C213.992 56.4605 178.125 97.7467 177.001 100.587C176.691 101.881 178.036 102.718 180.401 100.708C182.366 98.9579 218.037 54.853 192.967 43.198C183.257 38.6335 175.071 44.9174 171.026 50.3809C170.952 50.4965 170.853 50.5943 170.737 50.6674C170.62 50.7404 170.489 50.7869 170.353 50.8034C170.217 50.82 170.078 50.8063 169.948 50.7632C169.818 50.7201 169.698 50.6488 169.599 50.5543C142.154 29.7482 127.42 61.7388 137.194 70.6364Z" fill="#001434"/>
<path d="M232.308 168.862C223.44 164.339 215.976 170.281 212.361 175.581C197.098 163.041 176.733 171.436 182.94 190.993C188.162 207.845 219.508 220.15 221.99 217.653C223.559 216.145 252.194 178.938 232.308 168.862ZM222.198 210.329C220.697 212.368 220.534 213.715 215.945 212.101C206.9 209.064 189.014 199.982 186.884 188.846C184.551 177.147 192.098 174.494 196.808 173.899C204.889 173.098 210.334 180.408 213.415 180.453C216.137 180.589 220.076 166.963 230.439 172.359C243.285 179.558 228.672 201.254 222.181 210.325L222.198 210.329Z" fill="#001434"/>
<path d="M152.117 87.4117C155.012 88.9757 156.559 86.0769 154.558 85.0824C151.53 83.0816 148.822 80.6358 146.523 77.8273C146.001 77.187 144.707 76.8771 144.178 77.6032C142.132 80.0627 149.43 86.0929 152.117 87.4117Z" fill="#001434"/>
<path d="M124.19 137.831C125.473 136.557 123.133 134.308 121.204 135.907C113.677 142.331 100.258 136.043 100.117 125.206C100.122 122.293 96.9128 123.746 96.8466 125.951C96.5776 138.573 114.698 147.196 124.19 137.831Z" fill="#001434"/>
</g>
<defs>
<clipPath id="clip0_1993_9799">
<rect width="345.599" height="345.599" fill="white" transform="translate(80.499) rotate(13.4694)"/>
</clipPath>
</defs>
</svg>
