<svg width="78" height="14" viewBox="0 0 78 14" fill="none" xmlns="http://www.w3.org/2000/svg">
<path d="M7 -0.000488281L8.5716 4.83639H13.6574L9.5429 7.82575L11.1145 12.6626L7 9.67327L2.8855 12.6626L4.4571 7.82575L0.342604 4.83639H5.4284L7 -0.000488281Z" fill="#FAC05E"/>
<path d="M23 -0.000488281L24.5716 4.83639H29.6574L25.5429 7.82575L27.1145 12.6626L23 9.67327L18.8855 12.6626L20.4571 7.82575L16.3426 4.83639H21.4284L23 -0.000488281Z" fill="#FAC05E"/>
<path d="M39 -0.000488281L40.5716 4.83639H45.6574L41.5429 7.82575L43.1145 12.6626L39 9.67327L34.8855 12.6626L36.4571 7.82575L32.3426 4.83639H37.4284L39 -0.000488281Z" fill="#FAC05E"/>
<path d="M55 -0.000488281L56.5716 4.83639H61.6574L57.5429 7.82575L59.1145 12.6626L55 9.67327L50.8855 12.6626L52.4571 7.82575L48.3426 4.83639H53.4284L55 -0.000488281Z" fill="#FAC05E"/>
<path d="M71 -0.000488281L72.5716 4.83639H77.6574L73.5429 7.82575L75.1145 12.6626L71 9.67327L66.8855 12.6626L68.4571 7.82575L64.3426 4.83639H69.4284L71 -0.000488281Z" fill="#FAC05E"/>
</svg>
