<svg width="342" height="318" viewBox="0 0 342 318" fill="none" xmlns="http://www.w3.org/2000/svg">
<path d="M200.053 236.995C198.073 231.721 188.227 235.195 179.515 227.995C175.915 224.989 172.315 213.055 172.315 213.055C172.315 213.055 181.315 219.463 186.517 214.747C191.719 210.031 189.361 196.369 179.317 199.897C168.661 203.677 165.889 199.627 153.721 195.469C141.553 191.311 134.299 198.943 134.299 198.943C115.597 196.729 104.149 200.545 95.3832 205.387C87.6432 196.387 73.2432 202.831 66.0792 209.581C57.7812 217.393 59.3832 223.765 60.3372 225.781C49.8432 233.917 49.5372 242.179 50.2752 248.317C50.8838 254.772 53.4781 260.879 57.7009 265.798C61.9237 270.717 67.5674 274.206 73.8552 275.785C73.8552 275.785 73.5672 289.285 77.3112 290.509C81.0552 291.733 82.5132 287.071 89.9112 283.309C97.9032 281.221 106.381 272.941 101.917 267.109C111.871 273.283 126.883 269.521 128.125 253.501C133.021 263.005 155.503 261.853 167.725 256.579C169.201 267.901 165.601 278.611 160.705 283.201C153.505 289.897 147.583 289.357 143.893 292.525C140.203 295.693 148.969 305.395 169.093 292.903C186.931 281.815 188.227 262.789 175.825 247.399C188.137 250.801 202.105 242.449 200.053 236.995ZM97.0032 238.993C96.8772 239.281 94.5552 225.889 106.453 219.679C114.643 215.395 124.111 218.311 125.173 224.845C126.559 233.413 103.051 223.189 97.0032 238.993Z" fill="#FFC619"/>
<path d="M68.8512 184.613C63.1992 180.761 72.6852 149.405 83.0892 149.909C95.3292 150.503 113.977 177.413 107.443 187.133C103.861 192.461 78.3012 191.039 68.8512 184.613Z" fill="#FFC619"/>
<path d="M36.7567 162.601C34.2547 160.801 38.4487 146.401 43.0387 146.563C48.4387 146.833 56.6827 159.271 53.8387 163.771C52.2007 166.201 40.9327 165.607 36.7567 162.601Z" fill="#FFC619"/>
<path d="M117.449 154.176C115.379 152.736 118.835 141.108 122.615 141.288C127.061 141.522 133.829 151.494 131.453 155.112C130.157 157.092 120.869 156.552 117.449 154.176Z" fill="#FFC619"/>
<path d="M238.537 33.9546C238.537 33.9546 255.763 22.3266 260.929 25.1706C266.995 28.5186 263.683 30.7506 266.995 33.7386C271.333 37.6626 289.387 31.5246 292.879 35.5386C297.523 40.9386 289.279 46.5006 291.709 51.8646C294.139 57.2286 306.631 58.1106 306.631 61.0986C306.631 65.0766 301.231 64.5366 300.817 68.2986C300.601 69.9366 303.751 77.1906 301.303 78.4326C298.855 79.6746 289.495 68.2446 283.033 69.3246C278.299 70.1166 274.717 76.0566 270.127 75.9306C263.053 75.7326 249.967 62.7726 245.611 65.5626C241.255 68.3526 239.869 75.9126 235.315 75.7326C230.761 75.5526 225.379 63.4566 221.977 64.3026C218.575 65.1486 212.401 76.0926 208.801 75.3366C204.927 74.2317 200.913 73.6981 196.885 73.7526C192.493 73.9146 181.999 80.0526 175.105 78.6666C171.505 77.9466 168.697 73.9146 165.619 74.7246C160.543 76.0386 156.205 83.9946 154.117 82.5186C152.407 81.3126 155.485 76.1106 154.117 73.4106C153.325 71.9166 148.717 71.0706 148.195 68.4066C147.493 65.4006 160.867 60.9726 161.155 56.4006C161.443 51.8286 158.635 52.8006 160.129 48.1026C161.623 43.4046 175.501 46.4106 180.397 47.4186C186.607 55.3026 197.659 65.4186 222.859 57.2646C236.593 52.8006 238.537 33.9546 238.537 33.9546Z" fill="#FFC619"/>
<path d="M226.044 144.421C222.21 145.699 218.754 146.329 215.352 143.953C215.103 143.774 214.82 143.645 214.521 143.574C214.222 143.504 213.912 143.493 213.609 143.542C213.305 143.591 213.014 143.7 212.753 143.862C212.492 144.023 212.265 144.235 212.085 144.484C211.905 144.734 211.777 145.016 211.706 145.315C211.635 145.614 211.625 145.924 211.674 146.228C211.723 146.531 211.832 146.822 211.993 147.083C212.155 147.344 212.367 147.572 212.616 147.751C217.71 151.351 223.074 150.433 227.736 148.795C228.023 148.684 228.286 148.517 228.509 148.305C228.731 148.092 228.91 147.838 229.035 147.556C229.159 147.275 229.227 146.971 229.234 146.663C229.242 146.356 229.188 146.049 229.077 145.762C228.966 145.475 228.799 145.212 228.587 144.99C228.374 144.767 228.12 144.588 227.838 144.463C227.557 144.339 227.253 144.271 226.945 144.264C226.637 144.257 226.331 144.31 226.044 144.421Z" fill="#001434"/>
<path d="M225.667 122.857C222.458 121.371 218.866 120.918 215.389 121.561C211.789 122.245 209.107 124.153 210.259 126.025C210.572 126.557 211.078 126.947 211.671 127.115C212.265 127.282 212.9 127.215 213.445 126.925C216.289 125.125 220.897 125.593 224.497 127.231C225.007 127.22 225.5 127.043 225.901 126.728C226.302 126.413 226.591 125.976 226.723 125.483C226.854 124.99 226.823 124.468 226.632 123.994C226.442 123.521 226.103 123.122 225.667 122.857Z" fill="#001434"/>
<path d="M175.572 93.2819C179.55 91.8779 181.89 90.2759 187.218 90.8159C190.656 91.1759 190.692 86.4239 187.452 85.9739C182.982 85.6086 178.505 86.593 174.6 88.7999C171.882 90.2759 173.7 93.9659 175.572 93.2819Z" fill="#001434"/>
<path d="M183.602 95.6581C159.716 98.6641 165.98 130.938 187.328 129.138C209.36 127.284 205.076 92.9761 183.602 95.6581ZM196.454 117.708C195.619 119.778 194.143 121.525 192.242 122.694C186.842 118.05 178.526 112.056 173.486 108.528C178.742 93.0661 203.168 100.842 196.526 117.708H196.454Z" fill="#001434"/>
<path d="M213.949 117.061C214.178 117.301 214.456 117.489 214.763 117.613C215.071 117.738 215.401 117.795 215.733 117.782C216.064 117.769 216.389 117.685 216.686 117.537C216.982 117.389 217.244 117.179 217.454 116.922C217.663 116.665 217.816 116.366 217.901 116.046C217.986 115.725 218.003 115.39 217.949 115.063C217.895 114.736 217.772 114.423 217.588 114.147C217.404 113.871 217.164 113.637 216.883 113.461C209.773 108.997 216.469 101.167 223.309 104.047C226.117 105.235 228.025 100.753 225.109 99.7451C223.063 99.0065 220.872 98.7618 218.713 99.0308C216.555 99.2998 214.491 100.075 212.689 101.293C207.829 105.001 206.623 112.057 213.949 117.061Z" fill="#001434"/>
<path d="M253.566 89.2141C228.366 89.1061 231.714 125.88 254.574 123.414C276.588 121.2 274.302 89.3041 253.566 89.2141ZM259.83 116.934C254.61 112.29 246.024 106.134 240.732 102.408C249.426 82.1401 278.028 101.778 259.83 116.934Z" fill="#001434"/>
<path d="M230.852 131.495C228.242 133.637 222.59 135.905 220.79 131.693C220.595 131.239 220.263 130.858 219.84 130.602C219.417 130.347 218.924 130.231 218.432 130.271C213.968 130.559 217.388 137.201 209.774 131.819C207.29 130.019 205.04 133.169 206.93 135.545C209.18 138.389 216.254 141.233 218.954 136.949C223.094 142.349 231.554 137.669 234.11 134.429C234.459 133.992 234.629 133.437 234.583 132.879C234.537 132.321 234.28 131.801 233.864 131.427C233.448 131.052 232.904 130.85 232.344 130.863C231.784 130.876 231.25 131.102 230.852 131.495Z" fill="#001434"/>
<path d="M242.552 84.0661C246.498 83.1103 250.63 83.2472 254.504 84.4621C256.304 84.9301 257.744 81.4561 255.548 80.0341C252.182 77.8381 244.316 78.2341 241.31 79.5481C240.711 79.7128 240.201 80.1087 239.894 80.6488C239.587 81.1889 239.507 81.8289 239.672 82.4281C239.836 83.0272 240.232 83.5364 240.772 83.8435C241.313 84.1507 241.953 84.2308 242.552 84.0661Z" fill="#001434"/>
<path d="M42.7145 158.372C40.1945 158.588 40.2305 161.972 43.3805 161.702C45.9725 161.36 45.8465 157.886 42.7145 158.372Z" fill="#001434"/>
<path d="M87.6065 177.901C90.6125 177.199 90.7565 176.533 90.5945 169.441C90.4325 161.791 89.7125 149.947 81.7025 151.441C73.3865 151.675 80.3885 179.629 87.6065 177.901Z" fill="#001434"/>
<path d="M72.3609 256.938C69.1749 257.262 68.2029 258.09 68.3829 259.728C68.5269 260.934 69.4449 261.978 71.9829 261.798C74.0529 261.654 77.7249 263.706 79.0209 267.756C80.3169 271.806 84.1869 269.7 83.6289 266.37C82.9989 261.906 78.4269 256.326 72.3609 256.938Z" fill="#001434"/>
<path d="M88.6688 180.421C82.4408 181.627 83.0708 190.249 89.0288 189.835C95.7068 189.367 95.4008 179.107 88.6688 180.421Z" fill="#001434"/>
<path d="M44.2814 154.104C44.2525 152.688 43.9404 151.293 43.3634 150C42.8594 149.28 40.6274 149.298 39.7634 150C38.2694 151.17 39.5114 157.38 41.8154 157.362C43.3454 157.2 44.5874 156.822 44.2814 154.104Z" fill="#001434"/>
<path d="M337.95 232.998C333.218 232.441 328.458 232.164 323.694 232.17C337.284 214.602 342 203.172 342 188.97C342 160.476 314.586 128.814 293.706 115.422C302.544 111.318 309.564 102.012 308.682 91.7342C315.378 88.6022 312.084 77.8562 313.128 71.8082C315.342 67.7222 321.768 66.9482 320.454 59.1002C319.374 47.3462 298.134 54.1502 302.832 41.2802C303.804 37.5722 305.154 32.4782 301.14 28.3562C296.982 23.0462 280.026 27.2762 274.41 24.5042C271.89 5.8382 260.316 9.3482 246.834 17.6822C221.022 -10.1998 172.8 -0.767801 140.562 20.4002C124.92 30.7682 101.394 56.9762 116.892 115.548C96.7859 115.206 71.8919 114.648 50.7419 114.486C-1.04414 114 -6.64213 120.084 5.21987 162.924C8.81987 182.634 14.2199 207.438 17.3519 221.388C20.4659 233.988 20.5739 247.272 30.7979 252.636C20.8619 269.898 32.0399 274.236 45.1979 266.73C49.6057 272.939 55.5467 277.9 62.4419 281.13C61.2899 307.644 75.7259 300.768 87.6419 286.692C91.7819 283.902 96.5339 284.892 101.052 280.77C120.978 294.126 138.438 285.216 160.776 279.564C154.98 289.968 125.424 291.462 122.976 300.66C120.348 310.722 126.792 317.112 134.838 317.634C153.54 318.84 183.996 301.164 187.038 273.66C200.862 270.33 234.738 262.752 242.496 258.684C246.366 256.884 246.402 251.718 246.402 248.91C246.582 243.096 244.026 241.71 229.248 236.418C257.58 238.398 316.764 236.76 337.248 236.85C340.2 236.868 341.01 232.962 337.95 232.998ZM298.098 107.538C289.332 114.234 285.246 111.624 285.066 119.526C284.544 143.898 247.392 155.202 217.674 156.804C212.76 157.056 208.548 156.624 204.174 156.462C190.404 155.958 181.008 151.71 175.968 147.462C170.441 143.028 165.96 137.429 162.846 131.064C157.552 118.883 156.389 105.304 159.534 92.4002C165.114 85.4882 164.646 83.4002 167.004 83.0402C168.804 82.7162 173.556 86.3702 177.804 85.5782C184.248 84.4082 190.944 77.5142 196.272 75.6242C201.672 76.5242 206.154 84.6242 212.472 83.3462C218.934 82.7702 220.824 72.7262 225.504 70.7462C228.744 71.8802 230.688 77.6402 235.926 76.9922C247.086 74.9582 241.722 62.2142 254.43 75.0842C260.748 81.7442 265.698 84.3002 270.846 83.9582C277.02 83.5622 280.152 77.9102 284.256 78.0182C289.314 78.1442 297.018 91.7522 304.056 92.4182C304.429 95.237 304.077 98.1043 303.035 100.75C301.992 103.395 300.293 105.731 298.098 107.538ZM248.778 22.0742C253.872 18.6362 262.602 14.7302 265.464 15.6842C269.424 17.0162 268.02 24.6842 270.864 27.6182C274.716 32.8922 292.914 27.9962 297.864 31.6862C302.31 36.2942 294.012 45.2402 299.232 50.4962C302.706 55.3562 314.73 54.3842 315.918 59.9102C315.738 67.6862 306.072 65.0762 308.376 78.5042C309.672 102.66 292.518 71.6822 283.842 73.3202C277.992 74.0402 276.138 79.6562 269.838 79.5662C260.838 78.9002 247.248 54.6002 239.382 69.3782C238.23 71.1782 237.582 72.1502 235.692 72.2762C231.894 72.0242 230.166 65.2562 225.144 66.0482C218.7 66.3002 216.972 77.1002 211.788 78.6482C206.982 78.6482 202.158 70.6022 196.668 70.8722C189 71.2502 180.306 85.2722 171.468 79.1162C170.813 78.6189 170.062 78.263 169.263 78.0709C168.464 77.8788 167.633 77.8547 166.824 78.0002C160.866 78.5402 155.682 95.0462 149.652 91.9322C144.882 89.8982 151.902 81.2762 145.764 75.3722C140.364 70.2422 133.722 67.1462 144.558 63.1142C168.804 54.1142 127.026 39.7142 173.178 40.8662C182.484 70.6202 239.202 69.3242 240.696 35.4662C246.294 33.2702 250.2 27.9782 248.778 22.0742ZM143.154 24.2162C167.544 7.8902 196.794 1.1762 221.094 7.5122C235.116 11.1122 252.288 21.3722 240.102 30.5702C239.295 27.6863 237.877 25.0097 235.944 22.7222C233.946 20.4362 230.85 22.8842 232.902 25.1162C237.708 30.3002 237.384 41.8562 232.254 46.7162C230.981 43.5866 229.232 40.6723 227.07 38.0762C226.669 37.5988 226.095 37.3003 225.473 37.2463C224.852 37.1923 224.235 37.3872 223.758 37.7882C223.28 38.1892 222.982 38.7634 222.928 39.3846C222.874 40.0057 223.069 40.6228 223.47 41.1002C225.414 43.4042 228.222 47.8322 228.384 50.6942C223.634 54.3327 217.959 56.5653 212.004 57.1382C211.367 52.8841 210.042 48.7621 208.08 44.9342C207.798 44.3804 207.308 43.9612 206.717 43.7688C206.127 43.5764 205.484 43.6265 204.93 43.9082C204.376 44.1899 203.957 44.68 203.764 45.2707C203.572 45.8614 203.622 46.5044 203.904 47.0582C205.577 50.3135 206.725 53.8126 207.306 57.4262C192.114 57.5702 176.508 48.8042 176.13 31.0382C176.111 30.4159 175.847 29.8264 175.395 29.3981C174.943 28.9698 174.34 28.7377 173.718 28.7522C170.118 29.1302 171.756 33.7382 171.918 36.0602C153.144 34.9982 140.454 39.3002 147.078 52.1522C149.508 56.8862 146.484 56.8862 142.65 58.7942C125.424 65.9942 134.1 72.6722 143.694 80.5022C144.216 84.2642 141.894 89.5022 144.396 93.4082C135.612 96.7742 122.94 97.9802 118.008 98.3222C112.788 64.6982 121.446 38.7422 143.154 24.2162ZM25.9379 237.426C20.1599 213.486 15.6779 191.796 9.82787 162.096C8.02787 151.476 1.42187 132.522 6.40787 125.718C20.1059 113.892 76.8239 120.876 100.404 119.868C116.532 121.2 130.194 117.6 140.4 125.592C150.12 133.278 150.588 169.872 156.366 182.67C150.264 180.69 139.716 185.028 136.224 187.764C132.546 187.383 128.841 187.335 125.154 187.62C118.908 171.42 94.5539 136.23 79.2359 140.514C65.8259 144.276 54.1979 182.526 53.2259 196.656C43.5419 203.856 42.7679 216.816 46.2599 221.28C32.2919 232.08 38.0519 244.356 33.3359 248.676C30.5999 247.434 27.3059 243.114 25.9379 237.426ZM168.228 193.056C180.396 201.408 191.232 190.914 194.598 199.266C197.262 205.872 185.742 213.666 181.854 215.466C171.054 204.846 162.054 191.958 143.712 188.898C152.154 184.2 162.144 188.88 168.228 193.056ZM60.2279 210.03L62.0279 211.038C57.6195 212.691 53.5189 215.07 49.8959 218.076C42.9659 200.904 72.7559 188.952 86.2379 196.476C98.4959 201.534 90.8639 211.524 78.3179 210.588C69.8759 210.03 66.6539 208.446 62.7299 206.07C62.2073 205.8 61.6021 205.737 61.0349 205.893C60.4677 206.049 59.9801 206.413 59.6691 206.912C59.3582 207.411 59.2467 208.01 59.3569 208.587C59.4671 209.165 59.7909 209.68 60.2639 210.03H60.2279ZM58.6079 193.182C60.6959 181.302 71.2079 147.678 81.1619 145.59C91.1159 143.502 114.318 173.076 119.556 188.124C110.628 188.819 101.992 191.619 94.3559 196.296C88.8119 190.104 71.8199 186.324 58.6439 193.2L58.6079 193.182ZM101.574 272.706C96.3719 281.706 90.9899 278.322 84.5819 283.056C76.8779 290.256 66.1139 304.224 66.8699 283.056C70.4699 285.504 76.3559 282.714 71.3699 279.456C60.8579 276.9 47.9699 267.522 45.7019 256.83C45.5681 256.223 45.1999 255.693 44.6774 255.356C44.1548 255.019 43.5203 254.902 42.9119 255.03C39.4019 256.146 41.9399 260.43 42.7859 262.68C39.6899 264.066 35.0999 267.594 32.4179 265.884C28.0619 263.094 39.7439 250.008 40.1039 242.592C41.1119 228.336 57.2039 215.592 69.1739 213.972C80.3879 217.86 100.26 213.09 96.6959 200.472C113.418 188.934 149.778 189.024 165.24 204.774C160.776 201.606 151.326 201.282 145.44 203.694C138.708 206.43 134.442 210.552 136.89 213.342C137.114 213.559 137.381 213.727 137.673 213.836C137.966 213.944 138.278 213.991 138.589 213.972C138.901 213.953 139.205 213.87 139.483 213.728C139.76 213.585 140.005 213.386 140.202 213.144C156.942 196.782 177.174 218.328 189.414 227.67C194.076 230.46 208.494 227.184 210.15 232.44C212.112 243.492 194.886 250.44 185.472 250.152C180.072 249.828 173.124 243.654 170.928 241.296C168.732 238.938 165.384 242.322 167.508 244.5C168.905 245.953 170.396 247.312 171.972 248.568C167.598 261.312 145.926 264.876 131.994 262.752C132.426 253.752 129.186 247.776 123.264 242.178C140.724 227.256 121.698 205.404 102.87 219.66C95.0579 225.582 89.2619 235.752 93.4379 243.06C93.7589 243.575 94.2677 243.946 94.8567 244.093C95.4457 244.24 96.0688 244.153 96.5945 243.849C97.1202 243.545 97.5073 243.049 97.6739 242.465C97.8406 241.881 97.7739 241.256 97.4879 240.72C95.0219 236.418 98.7479 228.534 105.642 223.494C109.062 219.318 125.856 216.582 125.586 229.236C124.992 234.15 120.06 239.55 115.416 242.7C112.122 245.85 117.45 248.658 119.718 245.364C138.132 260.412 119.52 283.308 102.42 267.18C97.8839 264.264 96.6959 270.294 101.61 272.706H101.574ZM151.308 277.224C131.508 282.264 121.536 287.754 104.256 277.134C104.688 276.546 105.12 275.898 105.552 275.19C113.184 280.23 128.412 274.956 130.752 267.288C141.426 269.448 157.752 266.64 165.294 262.5C165.668 266.336 165.195 270.207 163.908 273.84C159.246 275.064 155.088 276.198 151.344 277.224H151.308ZM161.19 304.116C153.54 308.562 145.17 312.936 137.52 313.116C130.734 313.278 126.378 309.408 127.422 303.36C128.124 299.274 133.884 297.96 137.88 296.268C153.36 289.932 172.764 288.618 169.578 259.494C172.186 257.243 174.295 254.472 175.77 251.358C188.244 263.238 183.348 290.958 161.226 304.116H161.19ZM241.614 248.208C241.614 249.648 241.74 253.608 240.498 254.364C233.694 258.144 201.078 265.488 187.2 268.764C186.936 263.929 185.846 259.174 183.978 254.706C195.966 255.714 212.004 248.424 214.92 236.472C231.444 242.088 241.704 244.95 241.65 248.208H241.614ZM214.614 231.468C209.97 218.868 192.654 229.398 185.544 218.868C195.642 213.666 201.276 203.586 198.54 197.268C195.93 191.184 191.484 191.022 181.872 192.174C173.502 193.164 169.47 186.918 161.856 184.362C156.258 170.196 155.61 151.962 152.028 138.192C148.788 125.25 142.38 115.8 121.752 115.584C120.61 111.425 119.637 107.222 118.836 102.984C124.884 102.534 139.626 101.04 148.896 96.5942C150.668 97.1587 152.584 97.0693 154.296 96.3422C149.4 130.2 167.22 159 202.554 160.548C195.678 167.352 196.344 174.498 186.822 166.704C186.389 166.256 185.805 165.984 185.184 165.941C184.562 165.898 183.947 166.086 183.456 166.47C181.89 168.018 183.006 170.466 187.38 173.184C192.78 176.532 196.74 176.946 201.438 170.358C205.614 164.544 207.666 161.196 209.772 161.106C215.172 160.836 214.38 174.606 225.162 176.478C230.688 177.45 234.846 174.21 238.158 170.52C240.21 168.234 237.474 164.94 234.99 167.136C230.256 171.33 223.002 176.136 217.386 161.106C246.186 160.098 290.16 149.154 289.386 118.41C301.806 125.034 321.624 142.17 330.372 160.602C312.372 160.962 285.372 169.944 264.276 189.87C260.676 183.75 259.38 179.484 256.518 180.132C254.106 180.672 254.412 184.344 259.884 193.362C245.124 208.914 239.688 225.762 238.824 231.972C230.4 231.684 221.4 231.45 214.686 231.468H214.614ZM244.134 232.188C246.624 220.352 252.201 209.385 260.298 200.4C278.784 179.358 306.018 164.13 332.55 165.3C344.844 194.568 333.486 212.352 317.556 232.134C265.824 232.548 290.952 233.88 244.206 232.188H244.134Z" fill="#001434"/>
<path d="M77.8155 236.941C77.4195 232.405 73.8555 229.741 68.8155 230.101C64.9455 230.371 62.9655 233.503 64.6755 235.015C66.3855 236.527 67.7715 233.701 70.4175 234.889C70.9477 235.122 71.4066 235.492 71.7473 235.961C72.0879 236.429 72.2983 236.98 72.3568 237.556C72.4154 238.132 72.3201 238.714 72.0806 239.241C71.8411 239.769 71.466 240.223 70.9935 240.559C65.6835 238.597 64.7295 244.411 67.3935 248.497C70.7955 254.653 79.4175 250.873 75.0435 243.835C76.8435 241.441 79.9035 240.091 81.4875 244.231C82.5135 246.931 80.9295 249.865 83.2875 250.747C87.9495 252.601 88.9035 235.969 77.8155 236.941Z" fill="#001434"/>
<path d="M52.8662 239.46C49.6802 239.46 48.6182 240.126 48.6182 241.782C48.6182 243.006 49.4102 244.14 52.0382 244.248C53.6483 244.6 55.1138 245.432 56.2417 246.634C57.3696 247.835 58.1068 249.351 58.3562 250.98C59.1482 254.994 63.2522 253.482 63.0902 250.134C62.8742 245.616 58.9682 239.532 52.8662 239.46Z" fill="#001434"/>
<path d="M27.6841 195.469C23.6341 174.823 14.7601 142.999 18.4681 135.745C21.5281 129.805 39.6361 132.145 49.4101 131.317C69.4081 131.317 90.7201 130.831 118.386 131.155C127.998 131.371 135.9 130.183 138.888 139.795C139.824 142.783 143.136 143.395 142.632 138.913C141.228 126.313 129.582 126.691 118.458 126.457C98.6581 126.241 71.0641 126.457 60.6241 126.655C7.20009 126.601 6.93009 120.319 18.4321 174.931C20.3761 180.079 23.6341 204.937 26.7301 218.005C28.3681 224.935 29.3941 227.311 31.1221 226.843C32.8501 226.375 32.6521 224.143 31.4821 218.149C30.3121 212.155 28.1881 200.401 27.6841 195.469Z" fill="#001434"/>
<path d="M30.4567 150.163C25.8487 159.343 26.0827 164.563 28.6567 167.029C31.8967 170.161 40.8787 167.875 47.5207 167.605C61.5427 167.029 61.7587 159.505 52.9207 148.993C44.0827 138.481 37.2067 136.735 30.4567 150.163ZM53.4427 160.477C53.1187 162.853 43.5967 163.465 39.2587 163.753C31.9147 164.257 29.4127 163.447 34.5427 152.467C38.9167 143.071 42.9487 143.467 49.2487 151.999C51.2827 154.789 53.7127 158.389 53.4427 160.477Z" fill="#001434"/>
<path d="M125.425 151.999C126.757 151.999 127.351 151.063 126.919 149.047C126.577 145.573 125.353 142.837 122.959 145.087C121.717 146.257 123.211 152.179 125.425 151.999Z" fill="#001434"/>
<path d="M123.373 137.616C115.111 139.2 111.403 156.534 114.571 159.576C118.171 162.978 123.967 161.268 129.457 161.016C139.969 160.512 140.995 155.166 135.991 147.39C130.789 139.29 127.063 136.914 123.373 137.616ZM135.001 155.04C134.065 156.732 131.995 156.84 130.033 157.002C119.845 157.758 112.915 161.628 119.233 146.724C125.317 132.324 136.297 152.754 135.001 155.04Z" fill="#001434"/>
<path d="M126.09 152.79C123.894 153.006 123.93 156.228 126.684 155.922C128.952 155.598 128.844 152.34 126.09 152.79Z" fill="#001434"/>
</svg>
