 <svg width="22" height="22" viewBox="0 0 22 22" fill="none" xmlns="http://www.w3.org/2000/svg">
                        <g opacity="0.8">
                        <path fill-rule="evenodd" clip-rule="evenodd" d="M3.66667 5.49998C3.66667 3.47494 5.30829 1.83331 7.33334 1.83331H14.6667C16.6917 1.83331 18.3333 3.47494 18.3333 5.49998V18.3854C18.3333 19.8766 16.6478 20.744 15.4344 19.8772L11 16.7098L6.56561 19.8772C5.35218 20.744 3.66667 19.8766 3.66667 18.3854V5.49998ZM7.33334 3.66665C6.32082 3.66665 5.50001 4.48746 5.50001 5.49998V18.3854L9.9344 15.218C10.5718 14.7626 11.4282 14.7626 12.0656 15.218L16.5 18.3854V5.49998C16.5 4.48746 15.6792 3.66665 14.6667 3.66665H7.33334Z" fill="black"/>
                        </g>
                        </svg>