<svg width="78" height="14" viewBox="0 0 78 14" fill="none" xmlns="http://www.w3.org/2000/svg">
<path d="M7 -0.000488281L8.5716 4.83639H13.6574L9.5429 7.82575L11.1145 12.6626L7 9.67327L2.8855 12.6626L4.4571 7.82575L0.342604 4.83639H5.4284L7 -0.000488281Z" fill="#FAC05E"/>
<path d="M23 1.61755L24.0961 4.9909L24.2083 5.33639H24.5716H28.1186L25.249 7.42124L24.9551 7.63477L25.0674 7.98026L26.1634 11.3536L23.2939 9.26877L23 9.05524L22.7061 9.26877L19.8366 11.3536L20.9326 7.98026L21.0449 7.63477L20.751 7.42124L17.8814 5.33639H21.4284H21.7917L21.9039 4.9909L23 1.61755Z" fill="white" stroke="#FAC05E"/>
<path d="M39 1.61755L40.0961 4.9909L40.2083 5.33639H40.5716H44.1186L41.249 7.42124L40.9551 7.63477L41.0674 7.98026L42.1634 11.3536L39.2939 9.26877L39 9.05524L38.7061 9.26877L35.8366 11.3536L36.9326 7.98026L37.0449 7.63477L36.751 7.42124L33.8814 5.33639H37.4284H37.7917L37.9039 4.9909L39 1.61755Z" fill="white" stroke="#FAC05E"/>
<path d="M55 1.61755L56.0961 4.9909L56.2083 5.33639H56.5716H60.1186L57.249 7.42124L56.9551 7.63477L57.0674 7.98026L58.1634 11.3536L55.2939 9.26877L55 9.05524L54.7061 9.26877L51.8366 11.3536L52.9326 7.98026L53.0449 7.63477L52.751 7.42124L49.8814 5.33639H53.4284H53.7917L53.9039 4.9909L55 1.61755Z" fill="white" stroke="#FAC05E"/>
<path d="M71 1.61755L72.0961 4.9909L72.2083 5.33639H72.5716H76.1186L73.249 7.42124L72.9551 7.63477L73.0674 7.98026L74.1634 11.3536L71.2939 9.26877L71 9.05524L70.7061 9.26877L67.8366 11.3536L68.9326 7.98026L69.0449 7.63477L68.751 7.42124L65.8814 5.33639H69.4284H69.7917L69.9039 4.9909L71 1.61755Z" fill="white" stroke="#FAC05E"/>
</svg>
