<svg width="22" height="22" viewBox="0 0 22 22" fill="none" xmlns="http://www.w3.org/2000/svg">
<g opacity="0.8">
<path fill-rule="evenodd" clip-rule="evenodd" d="M4.51818 4.51817C6.17602 2.86033 8.46894 1.83331 11 1.83331C13.531 1.83331 15.824 2.86033 17.4818 4.51817C19.1396 6.176 20.1667 8.46893 20.1667 11C20.1667 13.531 19.1396 15.824 17.4818 17.4818C15.824 19.1396 13.531 20.1666 11 20.1666C8.46894 20.1666 6.17602 19.1396 4.51818 17.4818C2.86035 15.824 1.83333 13.531 1.83333 11C1.83333 8.46893 2.86035 6.176 4.51818 4.51817ZM11 3.66665C8.9747 3.66665 7.14262 4.48645 5.81454 5.81453C4.48647 7.14261 3.66666 8.97468 3.66666 11C3.66666 13.0253 4.48647 14.8574 5.81454 16.1854C7.14262 17.5135 8.9747 18.3333 11 18.3333C13.0253 18.3333 14.8574 17.5135 16.1854 16.1854C17.5135 14.8574 18.3333 13.0253 18.3333 11C18.3333 8.97468 17.5135 7.14261 16.1854 5.81453C14.8574 4.48645 13.0253 3.66665 11 3.66665Z" fill="black"/>
<path fill-rule="evenodd" clip-rule="evenodd" d="M11 6.41669C11.5063 6.41669 11.9167 6.82709 11.9167 7.33335V11C11.9167 11.5063 11.5063 11.9167 11 11.9167C10.4937 11.9167 10.0833 11.5063 10.0833 11L10.0833 7.33335C10.0833 6.82709 10.4937 6.41669 11 6.41669Z" fill="black"/>
<path fill-rule="evenodd" clip-rule="evenodd" d="M10.3518 10.3518C10.7098 9.99382 11.2902 9.99382 11.6482 10.3518L13.4815 12.1851C13.8395 12.5431 13.8395 13.1235 13.4815 13.4815C13.1235 13.8395 12.5431 13.8395 12.1851 13.4815L10.3518 11.6482C9.99383 11.2902 9.99383 10.7098 10.3518 10.3518Z" fill="black"/>
</g>
</svg>
