<svg width="24" height="24" viewBox="0 0 24 24" fill="none" xmlns="http://www.w3.org/2000/svg">
<path fill-rule="evenodd" clip-rule="evenodd" d="M11.0298 3.96983C11.1703 4.11045 11.2492 4.30108 11.2492 4.49983C11.2492 4.69858 11.1703 4.8892 11.0298 5.02983L4.80983 11.2498H20.9998C21.1987 11.2498 21.3895 11.3288 21.5302 11.4695C21.6708 11.6102 21.7498 11.8009 21.7498 11.9998C21.7498 12.1987 21.6708 12.3895 21.5302 12.5302C21.3895 12.6708 21.1987 12.7498 20.9998 12.7498H4.80983L11.0298 18.9698C11.1035 19.0385 11.1626 19.1213 11.2036 19.2133C11.2446 19.3053 11.2666 19.4046 11.2684 19.5053C11.2702 19.606 11.2517 19.706 11.214 19.7994C11.1762 19.8928 11.1201 19.9776 11.0489 20.0489C10.9776 20.1201 10.8928 20.1762 10.7994 20.214C10.706 20.2517 10.606 20.2702 10.5053 20.2684C10.4046 20.2666 10.3053 20.2446 10.2133 20.2036C10.1213 20.1626 10.0385 20.1035 9.96983 20.0298L2.46983 12.5298C2.32938 12.3892 2.25049 12.1986 2.25049 11.9998C2.25049 11.8011 2.32938 11.6105 2.46983 11.4698L9.96983 3.96983C10.1105 3.82938 10.3011 3.75049 10.4998 3.75049C10.6986 3.75049 10.8892 3.82938 11.0298 3.96983Z" stroke="white" stroke-width="2" stroke-linecap="round"/>
</svg>
