<svg width="24" height="24" viewBox="0 0 24 24" fill="none" xmlns="http://www.w3.org/2000/svg">
<path d="M8.21042 11.9998C8.21042 9.90698 9.90649 8.20999 11.9993 8.20999C14.0921 8.20999 15.7891 9.90698 15.7891 11.9998C15.7891 14.0926 14.0921 15.7895 11.9993 15.7895C9.90649 15.7895 8.21042 14.0926 8.21042 11.9998ZM6.16173 11.9998C6.16173 15.2239 8.7752 17.8373 11.9993 17.8373C15.2234 17.8373 17.8368 15.2239 17.8368 11.9998C17.8368 8.77568 15.2234 6.16222 11.9993 6.16222C8.7752 6.16222 6.16183 8.7755 6.16183 11.9998H6.16173ZM16.7038 5.93076C16.7037 6.20058 16.7836 6.46436 16.9334 6.68877C17.0832 6.91317 17.2962 7.08811 17.5455 7.19146C17.7947 7.29482 18.069 7.32194 18.3336 7.26941C18.5983 7.21688 18.8414 7.08705 19.0323 6.89633C19.2231 6.70562 19.3532 6.46259 19.4059 6.19798C19.4587 5.93337 19.4317 5.65907 19.3286 5.40975C19.2254 5.16043 19.0507 4.9473 18.8264 4.79731C18.6021 4.64732 18.3384 4.5672 18.0686 4.5671H18.068C17.7064 4.56726 17.3595 4.71097 17.1038 4.96666C16.848 5.22234 16.7041 5.5691 16.7038 5.93076ZM7.40644 21.2535C6.29806 21.203 5.69563 21.0184 5.29528 20.8624C4.76451 20.6558 4.3858 20.4097 3.98764 20.012C3.58947 19.6144 3.343 19.2361 3.13728 18.7053C2.98121 18.3051 2.79659 17.7025 2.7462 16.5942C2.69109 15.3958 2.68009 15.0359 2.68009 12C2.68009 8.96404 2.692 8.60507 2.7462 7.40574C2.79668 6.29737 2.98267 5.69593 3.13728 5.29458C3.34391 4.76381 3.59001 4.38511 3.98764 3.98694C4.38526 3.58877 4.7636 3.34231 5.29528 3.13658C5.69545 2.98052 6.29806 2.79589 7.40644 2.74551C8.60476 2.6904 8.96473 2.67939 11.9993 2.67939C15.0338 2.67939 15.3942 2.69112 16.5935 2.74569C17.7019 2.79617 18.3033 2.98216 18.7047 3.13677C19.2354 3.34249 19.6141 3.5895 20.0123 3.98712C20.4105 4.38475 20.656 4.764 20.8627 5.29476C21.0187 5.69493 21.2033 6.29755 21.2537 7.40593C21.3088 8.60525 21.3198 8.96422 21.3198 12.0001C21.3198 15.036 21.3088 15.395 21.2537 16.5943C21.2032 17.7027 21.0177 18.3051 20.8627 18.7055C20.656 19.2363 20.4099 19.615 20.0123 20.0122C19.6147 20.4095 19.2354 20.656 18.7047 20.8626C18.3045 21.0187 17.7019 21.2033 16.5935 21.2537C15.3952 21.3088 15.0352 21.3198 11.9993 21.3198C8.96337 21.3198 8.6044 21.3088 7.40644 21.2537V21.2535ZM7.31231 0.700195C6.10207 0.755309 5.27509 0.947208 4.55288 1.22824C3.80538 1.51845 3.17175 1.90779 2.53903 2.53951C1.90631 3.17124 1.51796 3.80496 1.22775 4.55336C0.94672 5.27603 0.754821 6.10256 0.699707 7.3128C0.643683 8.52494 0.630859 8.91247 0.630859 11.9998C0.630859 15.0871 0.643683 15.4746 0.699707 16.6867C0.754821 17.8971 0.94672 18.7235 1.22775 19.4462C1.51796 20.1937 1.9064 20.8286 2.53903 21.46C3.17166 22.0915 3.80447 22.4803 4.55288 22.7713C5.27645 23.0523 6.10207 23.2442 7.31231 23.2993C8.52509 23.3545 8.91198 23.3682 11.9993 23.3682C15.0866 23.3682 15.4741 23.3554 16.6863 23.2993C17.8966 23.2442 18.723 23.0523 19.4457 22.7713C20.1932 22.4803 20.8268 22.0917 21.4595 21.46C22.0923 20.8283 22.4798 20.1937 22.7708 19.4462C23.0518 18.7235 23.2447 17.897 23.2989 16.6867C23.354 15.4737 23.3668 15.0871 23.3668 11.9998C23.3668 8.91247 23.354 8.52494 23.2989 7.3128C23.2437 6.10247 23.0518 5.27558 22.7708 4.55336C22.4798 3.80587 22.0913 3.17224 21.4595 2.53951C20.8278 1.90679 20.1932 1.51845 19.4466 1.22824C18.723 0.947208 17.8965 0.7544 16.6872 0.700195C15.4748 0.644808 15.0875 0.631348 12.0006 0.631348C8.9138 0.631348 8.52555 0.644171 7.31277 0.700195" fill="white"/>
</svg>
