<svg width="23" height="22" viewBox="0 0 23 22" fill="none" xmlns="http://www.w3.org/2000/svg">
<path d="M0.71582 3.09665C0.71582 2.40612 0.958326 1.83644 1.44332 1.38761C1.92831 0.938768 2.55882 0.714355 3.3348 0.714355C4.09695 0.714355 4.71357 0.935308 5.18472 1.37725C5.66971 1.833 5.91222 2.42683 5.91222 3.1588C5.91222 3.8217 5.67665 4.3741 5.20551 4.81604C4.72052 5.27179 4.08308 5.49966 3.29323 5.49966H3.27245C2.5103 5.49966 1.89368 5.27179 1.42253 4.81604C0.951383 4.3603 0.71582 3.78716 0.71582 3.09665ZM0.986033 21.2228V7.38478H5.60043V21.2228H0.986033ZM8.15706 21.2228H12.7715V13.4959C12.7715 13.0125 12.8269 12.6396 12.9377 12.3772C13.1317 11.9077 13.4262 11.5106 13.8211 11.1861C14.2161 10.8615 14.7114 10.6993 15.3073 10.6993C16.8593 10.6993 17.6353 11.742 17.6353 13.8273V21.2228H22.2497V13.2887C22.2497 11.2448 21.7647 9.69457 20.7947 8.63807C19.8247 7.58158 18.5429 7.05333 16.9494 7.05333C15.1618 7.05333 13.7692 7.81981 12.7715 9.35276V9.39419H12.7507L12.7715 9.35276V7.38478H8.15706C8.18477 7.8267 8.19863 9.20083 8.19863 11.5072C8.19863 13.8135 8.18477 17.052 8.15706 21.2228Z" fill="white"/>
</svg>
