<svg width="22" height="22" viewBox="0 0 22 22" fill="none" xmlns="http://www.w3.org/2000/svg">
<path fill-rule="evenodd" clip-rule="evenodd" d="M11 0.253906C4.9247 0.253906 0 5.18631 0 11.2726C0 16.1401 3.1515 20.2706 7.5229 21.727C8.0729 21.8282 8.2731 21.4883 8.2731 21.1957C8.2731 20.935 8.2643 20.2409 8.2588 19.3224C5.1986 19.9879 4.5529 17.8451 4.5529 17.8451C4.0535 16.5713 3.3319 16.2325 3.3319 16.2325C2.3331 15.5505 3.4078 15.5637 3.4078 15.5637C4.5111 15.6407 5.0919 16.6989 5.0919 16.6989C6.0731 18.3819 7.667 17.8957 8.2929 17.6141C8.3941 16.9024 8.6779 16.4173 8.9925 16.1423C6.5505 15.864 3.982 14.918 3.982 10.6962C3.982 9.49391 4.411 8.50941 5.1139 7.73941C5.0006 7.46111 4.6233 6.34021 5.2217 4.82441C5.2217 4.82441 6.1457 4.52741 8.2467 5.95301C9.14404 5.70827 10.0699 5.58362 11 5.58231C11.935 5.58671 12.8755 5.70881 13.7544 5.95301C15.8543 4.52741 16.7761 4.82331 16.7761 4.82331C17.3767 6.34021 16.9983 7.46111 16.8861 7.73941C17.5901 8.50941 18.0169 9.49391 18.0169 10.6962C18.0169 14.929 15.444 15.8607 12.9943 16.1335C13.3892 16.4734 13.7401 17.1455 13.7401 18.174C13.7401 19.6458 13.7269 20.8349 13.7269 21.1957C13.7269 21.4905 13.9249 21.8337 14.4837 21.7259C16.6741 20.9912 18.5783 19.5867 19.927 17.711C21.2758 15.8352 22.0009 13.583 22 11.2726C22 5.18631 17.0742 0.253906 11 0.253906Z" fill="black"/>
</svg>
