<svg width="22" height="16" viewBox="0 0 22 16" fill="none" xmlns="http://www.w3.org/2000/svg">
<path fill-rule="evenodd" clip-rule="evenodd" d="M19.5949 0.759798C20.5421 1.01334 21.2865 1.75766 21.54 2.70481C21.9982 4.41982 22 8.00016 22 8.00016C22 8.00016 22 11.5805 21.54 13.2955C21.2865 14.2427 20.5421 14.987 19.5949 15.2405C17.88 15.7005 11 15.7005 11 15.7005C11 15.7005 4.12002 15.7005 2.405 15.2405C1.45785 14.987 0.713533 14.2427 0.459993 13.2955C1.37693e-07 11.5805 0 8.00016 0 8.00016C0 8.00016 1.37693e-07 4.41982 0.459993 2.70481C0.713533 1.75766 1.45785 1.01334 2.405 0.759798C4.12002 0.299805 11 0.299805 11 0.299805C11 0.299805 17.88 0.299805 19.5949 0.759798ZM14.5134 8.00047L8.79788 11.3001V4.70082L14.5134 8.00047Z" fill="black"/>
</svg>
