<svg width="30" height="30" viewBox="0 0 30 30" fill="none" xmlns="http://www.w3.org/2000/svg">
<path fill-rule="evenodd" clip-rule="evenodd" d="M0.375 15C0.375 6.9225 6.9225 0.375 15 0.375C23.0775 0.375 29.625 6.9225 29.625 15C29.625 23.0775 23.0775 29.625 15 29.625C6.9225 29.625 0.375 23.0775 0.375 15ZM20.415 12.279C20.505 12.1591 20.5701 12.0224 20.6065 11.8769C20.6429 11.7315 20.6499 11.5802 20.627 11.432C20.6041 11.2838 20.5519 11.1417 20.4733 11.014C20.3947 10.8864 20.2914 10.7757 20.1694 10.6885C20.0474 10.6013 19.9092 10.5394 19.763 10.5063C19.6167 10.4733 19.4653 10.4699 19.3177 10.4962C19.1701 10.5225 19.0292 10.5781 18.9034 10.6596C18.7776 10.7412 18.6693 10.847 18.585 10.971L13.731 17.766L11.295 15.33C11.0817 15.1313 10.7997 15.0231 10.5082 15.0282C10.2168 15.0334 9.93869 15.1514 9.73257 15.3576C9.52645 15.5637 9.40838 15.8418 9.40324 16.1332C9.39809 16.4247 9.50628 16.7067 9.705 16.92L13.08 20.295C13.1955 20.4104 13.3347 20.4993 13.488 20.5555C13.6413 20.6117 13.8049 20.6338 13.9676 20.6204C14.1303 20.607 14.2882 20.5583 14.4302 20.4778C14.5722 20.3972 14.695 20.2868 14.79 20.154L20.415 12.279Z" fill="#21B792"/>
</svg>
