<svg width="20" height="20" viewBox="0 0 20 20" fill="none" xmlns="http://www.w3.org/2000/svg">
<path d="M6.68387 9.99913C6.68387 8.16793 8.16794 6.68307 9.99913 6.68307C11.8303 6.68307 13.3152 8.16793 13.3152 9.99913C13.3152 11.8303 11.8303 13.3152 9.99913 13.3152C8.16794 13.3152 6.68387 11.8303 6.68387 9.99913ZM4.89127 9.99913C4.89127 12.8202 7.17805 15.107 9.99913 15.107C12.8202 15.107 15.107 12.8202 15.107 9.99913C15.107 7.17805 12.8202 4.89127 9.99913 4.89127C7.17805 4.89127 4.89135 7.17789 4.89135 9.99913H4.89127ZM14.1156 4.68874C14.1155 4.92483 14.1854 5.15565 14.3165 5.352C14.4476 5.54835 14.634 5.70142 14.852 5.79186C15.0701 5.88229 15.3101 5.90603 15.5417 5.86006C15.7733 5.8141 15.986 5.70049 16.153 5.53362C16.32 5.36675 16.4338 5.1541 16.4799 4.92256C16.5261 4.69103 16.5025 4.45101 16.4123 4.23286C16.322 4.01471 16.1691 3.82822 15.9728 3.69697C15.7766 3.56573 15.5458 3.49563 15.3098 3.49554H15.3093C14.9928 3.49568 14.6894 3.62143 14.4655 3.84515C14.2417 4.06888 14.1159 4.37229 14.1156 4.68874ZM5.98039 18.0961C5.01056 18.052 4.48343 17.8904 4.13312 17.7539C3.6687 17.5731 3.33733 17.3578 2.98894 17.0099C2.64054 16.662 2.42488 16.3309 2.24487 15.8665C2.10832 15.5163 1.94677 14.989 1.90269 14.0192C1.85446 12.9707 1.84483 12.6557 1.84483 9.99928C1.84483 7.34286 1.85526 7.02876 1.90269 5.97935C1.94685 5.00953 2.10959 4.48327 2.24487 4.13209C2.42568 3.66767 2.64102 3.3363 2.98894 2.9879C3.33686 2.63951 3.66791 2.42385 4.13312 2.24384C4.48327 2.10728 5.01056 1.94574 5.98039 1.90165C7.02892 1.85343 7.3439 1.8438 9.99913 1.8438C12.6544 1.8438 12.9697 1.85406 14.0191 1.90181C14.9889 1.94598 15.5151 2.10871 15.8663 2.244C16.3307 2.42401 16.6621 2.64014 17.0105 2.98806C17.3589 3.33598 17.5738 3.66782 17.7546 4.13225C17.8911 4.4824 18.0527 5.00969 18.0968 5.97951C18.145 7.02892 18.1546 7.34302 18.1546 9.99944C18.1546 12.6559 18.145 12.97 18.0968 14.0194C18.0526 14.9892 17.8903 15.5163 17.7546 15.8666C17.5738 16.3311 17.3584 16.6624 17.0105 17.01C16.6626 17.3576 16.3307 17.5733 15.8663 17.7541C15.5162 17.8907 14.9889 18.0522 14.0191 18.0963C12.9705 18.1445 12.6556 18.1541 9.99913 18.1541C7.3427 18.1541 7.02861 18.1445 5.98039 18.0963V18.0961ZM5.89803 0.111999C4.83907 0.160224 4.11546 0.328136 3.48352 0.574034C2.82946 0.827971 2.27503 1.16865 1.7214 1.7214C1.16777 2.27416 0.827971 2.82867 0.574035 3.48352C0.328136 4.11585 0.160224 4.83907 0.111999 5.89803C0.0629785 6.95865 0.0517578 7.29774 0.0517578 9.99913C0.0517578 12.7005 0.0629785 13.0396 0.111999 14.1002C0.160224 15.1593 0.328136 15.8824 0.574035 16.5147C0.827971 17.1688 1.16785 17.7243 1.7214 18.2768C2.27496 18.8294 2.82867 19.1696 3.48352 19.4242C4.11665 19.6701 4.83907 19.838 5.89803 19.8863C6.95921 19.9345 7.29774 19.9465 9.99913 19.9465C12.7005 19.9465 13.0396 19.9353 14.1002 19.8863C15.1593 19.838 15.8824 19.6701 16.5147 19.4242C17.1688 19.1696 17.7232 18.8296 18.2769 18.2768C18.8305 17.7241 19.1696 17.1688 19.4242 16.5147C19.6701 15.8824 19.8388 15.1592 19.8863 14.1002C19.9345 13.0388 19.9457 12.7005 19.9457 9.99913C19.9457 7.29774 19.9345 6.95865 19.8863 5.89803C19.838 4.83899 19.6701 4.11546 19.4242 3.48352C19.1696 2.82946 18.8296 2.27503 18.2769 1.7214C17.7241 1.16777 17.1688 0.827971 16.5155 0.574034C15.8824 0.328136 15.1592 0.159428 14.101 0.111999C13.0402 0.0635356 12.7013 0.0517578 10.0003 0.0517578C7.29933 0.0517578 6.95961 0.0629785 5.89843 0.111999" fill="white"/>
</svg>
