<svg width="19" height="18" viewBox="0 0 19 18" fill="none" xmlns="http://www.w3.org/2000/svg">
<path d="M0.00146484 2.08451C0.00146484 1.48029 0.213657 0.981821 0.638023 0.5891C1.06239 0.196361 1.61409 0 2.29308 0C2.95995 0 3.4995 0.193334 3.91175 0.580037C4.33612 0.978812 4.54831 1.49842 4.54831 2.13889C4.54831 2.71892 4.34219 3.20227 3.92994 3.58898C3.50557 3.98775 2.94782 4.18714 2.2567 4.18714H2.23851C1.57164 4.18714 1.03209 3.98775 0.619836 3.58898C0.207583 3.1902 0.00146484 2.68871 0.00146484 2.08451ZM0.237901 17.9449V5.83662H4.2755V17.9449H0.237901ZM6.51255 17.9449H10.5501V11.1838C10.5501 10.7609 10.5987 10.4346 10.6956 10.205C10.8654 9.79416 11.1231 9.44673 11.4686 9.16277C11.8142 8.87879 12.2476 8.7368 12.769 8.7368C14.127 8.7368 14.806 9.64915 14.806 11.4739V17.9449H18.8436V11.0026C18.8436 9.21412 18.4192 7.85769 17.5705 6.93325C16.7217 6.00882 15.6002 5.5466 14.2058 5.5466C12.6417 5.5466 11.4231 6.21727 10.5501 7.5586V7.59486H10.532L10.5501 7.5586V5.83662H6.51255C6.53679 6.22331 6.54892 7.42567 6.54892 9.44372C6.54892 11.4618 6.53679 14.2955 6.51255 17.9449Z" fill="white"/>
</svg>
