<svg width="44" height="44" viewBox="0 0 44 44" fill="none" xmlns="http://www.w3.org/2000/svg">
<path d="M0 14.667V32.7787C0 34.4582 0.662243 36.069 1.84104 37.2566C3.01984 38.4442 4.61864 39.1114 6.28571 39.1114H37.7143C39.3814 39.1114 40.9802 38.4442 42.159 37.2566C43.3378 36.069 44 34.4582 44 32.7787V14.667L25.2937 26.2623C24.3032 26.8762 23.163 27.2013 22 27.2013C20.837 27.2013 19.6968 26.8762 18.7063 26.2623L0 14.667Z" fill="#8447FF"/>
<path d="M44 11.4887V11.1585C44 9.49591 43.3378 7.9014 42.159 6.72576C40.9802 5.55012 39.3814 4.88965 37.7143 4.88965H6.28571C4.61864 4.88965 3.01984 5.55012 1.84104 6.72576C0.662243 7.9014 0 9.49591 0 11.1585V11.4887L20.3531 23.9804C20.8484 24.2843 21.4185 24.4452 22 24.4452C22.5815 24.4452 23.1516 24.2843 23.6469 23.9804L44 11.4887Z" fill="#8447FF"/>
</svg>
