<svg width="28" height="34" viewBox="0 0 28 34" fill="none" xmlns="http://www.w3.org/2000/svg">
<path d="M14.0002 34C14.0002 34 27.3045 22.1739 27.3045 13.3043C27.3045 5.95656 21.3479 0 14.0002 0C6.65236 0 0.695801 5.95656 0.695801 13.3043C0.695801 22.1739 14.0002 34 14.0002 34Z" fill="#8447FF"/>
<path d="M18.2507 12.7503C18.2507 15.0975 16.3479 17.0003 14.0007 17.0003C11.6535 17.0003 9.75069 15.0975 9.75069 12.7503C9.75069 10.4031 11.6535 8.50027 14.0007 8.50027C16.3479 8.50027 18.2507 10.4031 18.2507 12.7503Z" fill="#8447FF"/>
<path d="M18.252 12.75C18.252 15.0972 16.3492 17 14.002 17C11.6547 17 9.75195 15.0972 9.75195 12.75C9.75195 10.4028 11.6547 8.5 14.002 8.5C16.3492 8.5 18.252 10.4028 18.252 12.75Z" fill="white"/>
</svg>
