<svg width="44" height="44" viewBox="0 0 44 44" fill="none" xmlns="http://www.w3.org/2000/svg">
<path d="M15.3582 13.2643L15.3582 13.2642L13.2535 4.83981C12.9173 3.49811 11.7106 2.55556 10.3276 2.55556H7.71429C6.34611 2.55556 5.03396 3.09906 4.06651 4.06651C3.09906 5.03396 2.55556 6.34611 2.55556 7.71429V12C2.55556 28.2608 15.7392 41.4444 32 41.4444H36.2857C37.6539 41.4444 38.966 40.9009 39.9335 39.9335C40.9009 38.966 41.4444 37.6539 41.4444 36.2857V33.6743C41.4444 32.2892 40.5017 31.0827 39.1602 30.7465L30.7358 28.6418L30.7357 28.6418C30.1598 28.4978 29.5543 28.5269 28.995 28.7254C28.4356 28.924 27.9472 29.2832 27.5911 29.7581L27.5911 29.7581L25.7435 32.221L25.7423 32.2225C25.4095 32.663 24.8764 32.8109 24.4368 32.649C24.4367 32.649 24.4365 32.6489 24.4363 32.6488L24.6286 32.1276C21.705 31.0526 19.0501 29.3551 16.8475 27.1525C14.6449 24.9499 12.9474 22.295 11.8724 19.3714L15.3582 13.2643ZM15.3582 13.2643C15.5022 13.8402 15.4731 14.4457 15.2746 15.005C15.076 15.5644 14.7168 16.0528 14.2419 16.4089L14.2418 16.4089L11.7796 18.2561C11.7795 18.2562 11.7795 18.2562 11.7794 18.2563C11.3355 18.5885 11.1897 19.1252 11.351 19.5632L15.3582 13.2643Z" fill="#8447FF" stroke="#8447FF" stroke-width="1.11111"/>
</svg>
