<svg width="34" height="24" viewBox="0 0 34 24" fill="none" xmlns="http://www.w3.org/2000/svg">
<path d="M27.25 12.5556C27.25 12.5556 24.2778 15.8334 16.6389 15.8334C9.00003 15.8334 6.13892 12.5556 6.13892 12.5556V5.41675H27.25V12.5556Z" fill="url(#paint0_linear_522_2822)"/>
<path opacity="0.4" d="M27.25 12.5556C27.25 12.5556 24.2778 15.8334 16.6389 15.8334C9.00003 15.8334 6.13892 12.5556 6.13892 12.5556V5.41675H27.25V12.5556Z" fill="url(#paint1_linear_522_2822)"/>
<path d="M16.4167 10.8332L0.0277778 5.44431L0 4.36098L32.8333 4.30542V5.41653L16.4167 10.8332Z" fill="#353535"/>
<path opacity="0.5" d="M16.4167 10.8332L0.0277778 5.44431L0 4.36098L32.8333 4.30542V5.41653L16.4167 10.8332Z" fill="url(#paint2_linear_522_2822)"/>
<path d="M16.4167 9.75L0.027832 4.36111L16.4167 0L32.8612 4.30556L16.4167 9.75Z" fill="url(#paint3_linear_522_2822)"/>
<path d="M32.3055 4.02783H16.8333C16.5555 4.02783 16.3055 4.22228 16.2778 4.47228C16.2222 4.80561 16.5 5.11117 16.8055 5.11117H31.1944C31.5 5.11117 31.75 5.36117 31.75 5.66672V20.9445C31.75 21.2223 31.9444 21.4723 32.1944 21.5278C32.5278 21.5834 32.8333 21.3056 32.8333 21.0001V4.58339C32.8611 4.27783 32.6111 4.02783 32.3055 4.02783Z" fill="#FFB300"/>
<path d="M32.3055 21.5278C31.9999 21.5278 31.7499 21.2778 31.7499 20.9723V4.58339C31.7499 4.27783 31.9999 4.02783 32.3055 4.02783C32.6111 4.02783 32.8611 4.27783 32.8611 4.58339V21.0001C32.8611 21.3056 32.6111 21.5278 32.3055 21.5278Z" fill="#FFB300"/>
<path d="M31.75 23.9999C31.1388 23.9999 30.0833 23.2499 30.1111 22.6388C30.1111 22.4444 30.25 22.1944 30.4166 21.9999C30.9722 21.3055 31.5 20.4166 31.5 19.5277V18.5277C31.5 18.2222 31.75 17.9722 32.0555 17.9722H32.5833C32.8888 17.9722 33.1388 18.2222 33.1388 18.5277C33.1388 18.5277 33.4444 21.1111 32.8611 22.9166C32.4444 23.5277 32.3611 23.9999 31.75 23.9999Z" fill="#FFB300"/>
<path d="M32.3055 19.0278C32.9345 19.0278 33.4444 18.5179 33.4444 17.8889C33.4444 17.2599 32.9345 16.75 32.3055 16.75C31.6765 16.75 31.1666 17.2599 31.1666 17.8889C31.1666 18.5179 31.6765 19.0278 32.3055 19.0278Z" fill="#FFB300"/>
<path d="M32.3055 21.5278C31.9999 21.5278 31.7499 21.2778 31.7499 20.9723V4.58339C31.7499 4.27783 31.9999 4.02783 32.3055 4.02783C32.6111 4.02783 32.8611 4.27783 32.8611 4.58339V21.0001C32.8611 21.3056 32.6111 21.5278 32.3055 21.5278Z" fill="#FFB300"/>
<path d="M31.75 23.9999C31.1388 23.9999 30.0833 23.2499 30.1111 22.6388C30.1111 22.4444 30.25 22.1944 30.4166 21.9999C30.9722 21.3055 31.5 20.4166 31.5 19.5277V18.5277C31.5 18.2222 31.75 17.9722 32.0555 17.9722H32.5833C32.8888 17.9722 33.1388 18.2222 33.1388 18.5277C33.1388 18.5277 33.4444 21.1111 32.8611 22.9166C32.4444 23.5277 32.3611 23.9999 31.75 23.9999Z" fill="#FFB300"/>
<path d="M32.3055 19.0278C32.9345 19.0278 33.4444 18.5179 33.4444 17.8889C33.4444 17.2599 32.9345 16.75 32.3055 16.75C31.6765 16.75 31.1666 17.2599 31.1666 17.8889C31.1666 18.5179 31.6765 19.0278 32.3055 19.0278Z" fill="#FFB300"/>
<path d="M16.2778 4.58339C16.2778 4.27783 16.5278 4.02783 16.8333 4.02783H32.3333C32.6389 4.02783 32.8889 4.27783 32.8889 4.58339C32.8889 4.88894 32.6389 5.13894 32.3333 5.13894H16.8055C16.5278 5.11117 16.2778 4.88894 16.2778 4.58339Z" fill="#FFCA28"/>
<path d="M16.6945 5.5278C17.9371 5.5278 18.9445 5.10496 18.9445 4.58336C18.9445 4.06176 17.9371 3.63892 16.6945 3.63892C15.4518 3.63892 14.4445 4.06176 14.4445 4.58336C14.4445 5.10496 15.4518 5.5278 16.6945 5.5278Z" fill="url(#paint4_radial_522_2822)"/>
<defs>
<linearGradient id="paint0_linear_522_2822" x1="16.6945" y1="7.0465" x2="16.6945" y2="16.3056" gradientUnits="userSpaceOnUse">
<stop stop-color="#212121"/>
<stop offset="0.7026" stop-color="#616161"/>
</linearGradient>
<linearGradient id="paint1_linear_522_2822" x1="6.10205" y1="10.6251" x2="27.2132" y2="10.6251" gradientUnits="userSpaceOnUse">
<stop offset="0.0012001" stop-color="#BFBEBE"/>
<stop offset="0.15" stop-color="#212121" stop-opacity="0"/>
<stop offset="0.8505" stop-color="#212121" stop-opacity="0"/>
<stop offset="1" stop-color="#BFBEBE"/>
</linearGradient>
<linearGradient id="paint2_linear_522_2822" x1="0" y1="7.56931" x2="32.8333" y2="7.56931" gradientUnits="userSpaceOnUse">
<stop offset="0.0012001" stop-color="#BFBEBE"/>
<stop offset="0.3" stop-color="#212121" stop-opacity="0"/>
<stop offset="0.7" stop-color="#212121" stop-opacity="0"/>
<stop offset="1" stop-color="#BFBEBE"/>
</linearGradient>
<linearGradient id="paint3_linear_522_2822" x1="16.4445" y1="-4.57408" x2="16.4445" y2="6.12058" gradientUnits="userSpaceOnUse">
<stop stop-color="#9E9E9E"/>
<stop offset="0.7151" stop-color="#616161"/>
</linearGradient>
<radialGradient id="paint4_radial_522_2822" cx="0" cy="0" r="1" gradientUnits="userSpaceOnUse" gradientTransform="translate(16.7327 4.21185) scale(2.39536 0.956947)">
<stop offset="0.3965" stop-color="#757575"/>
<stop offset="0.9968" stop-color="#424242"/>
</radialGradient>
</defs>
</svg>
