<svg width="142" height="146" viewBox="0 0 142 146" fill="none" xmlns="http://www.w3.org/2000/svg">
<path d="M81.5264 3.70033C75.155 -1.23344 66.2532 -1.23345 59.8818 3.70032L0 50.0707L141.408 50.0707L81.5264 3.70033Z" fill="#F0E6FA"/>
<path d="M70.7041 104.821L141.408 50.0707L0 50.0707L70.7041 104.821Z" fill="#F0E6FA"/>
<rect x="44.8525" y="68.97" width="53.0281" height="53.0281" rx="2.46029" fill="#8333D7"/>
<rect x="1.23014" y="-1.23014" width="29.9458" height="32.8918" rx="11.0713" transform="matrix(1 0 0 -1 55.1641 82.7128)" stroke="#8333D7" stroke-width="2.46029"/>
<circle cx="70.7051" cy="85.1732" r="4.41901" fill="#B88AE8"/>
<path d="M0.3224 49.821L0 50.0707V49.821H0.3224Z" fill="#F7F3FD"/>
<path d="M141.086 49.821L141.408 50.0707L79.7421 97.8228C74.4212 101.943 66.9871 101.943 61.6661 97.8228L0 50.0707V127.89C0 137.652 7.91383 145.566 17.676 145.566H123.732C133.494 145.566 141.408 137.652 141.408 127.89V50.0707V49.821H141.086Z" fill="#F7F3FD"/>
</svg>
